<svg width="1121" height="96" viewBox="0 0 1121 96" fill="none" xmlns="http://www.w3.org/2000/svg">
<path d="M96 48C96 74.5097 74.5097 96 48 96C21.4903 96 0 74.5097 0 48C0 21.4903 21.4903 0 48 0C74.5097 0 96 21.4903 96 48ZM15.4393 48C15.4393 65.9828 30.0172 80.5607 48 80.5607C65.9828 80.5607 80.5607 65.9828 80.5607 48C80.5607 30.0172 65.9828 15.4393 48 15.4393C30.0172 15.4393 15.4393 30.0172 15.4393 48Z" fill="#FAFAFA"/>
<path d="M134.651 22.1364V74.5H125.165V22.1364H134.651ZM144.513 74.5V35.2273H153.488V41.7727H153.897C154.613 39.5057 155.84 37.7585 157.579 36.5312C159.335 35.2869 161.337 34.6648 163.587 34.6648C164.099 34.6648 164.67 34.6903 165.3 34.7415C165.948 34.7756 166.485 34.8352 166.911 34.9205V43.4347C166.519 43.2983 165.897 43.179 165.045 43.0767C164.21 42.9574 163.4 42.8977 162.616 42.8977C160.928 42.8977 159.411 43.2642 158.065 43.9972C156.735 44.7131 155.687 45.7102 154.92 46.9886C154.153 48.267 153.769 49.7415 153.769 51.4119V74.5H144.513ZM188.574 75.267C184.739 75.267 181.415 74.4233 178.602 72.7358C175.79 71.0483 173.608 68.6875 172.057 65.6534C170.523 62.6193 169.756 59.0739 169.756 55.017C169.756 50.9602 170.523 47.4062 172.057 44.3551C173.608 41.304 175.79 38.9347 178.602 37.2472C181.415 35.5597 184.739 34.7159 188.574 34.7159C192.409 34.7159 195.733 35.5597 198.545 37.2472C201.358 38.9347 203.531 41.304 205.065 44.3551C206.616 47.4062 207.392 50.9602 207.392 55.017C207.392 59.0739 206.616 62.6193 205.065 65.6534C203.531 68.6875 201.358 71.0483 198.545 72.7358C195.733 74.4233 192.409 75.267 188.574 75.267ZM188.625 67.8523C190.705 67.8523 192.443 67.2812 193.841 66.1392C195.239 64.9801 196.278 63.429 196.96 61.4858C197.659 59.5426 198.009 57.3778 198.009 54.9915C198.009 52.5881 197.659 50.4148 196.96 48.4716C196.278 46.5114 195.239 44.9517 193.841 43.7926C192.443 42.6335 190.705 42.054 188.625 42.054C186.494 42.054 184.722 42.6335 183.307 43.7926C181.909 44.9517 180.861 46.5114 180.162 48.4716C179.48 50.4148 179.139 52.5881 179.139 54.9915C179.139 57.3778 179.48 59.5426 180.162 61.4858C180.861 63.429 181.909 64.9801 183.307 66.1392C184.722 67.2812 186.494 67.8523 188.625 67.8523ZM224.504 51.4886V74.5H215.248V35.2273H224.094V41.9006H224.555C225.458 39.7017 226.898 37.9545 228.876 36.6591C230.87 35.3636 233.333 34.7159 236.265 34.7159C238.975 34.7159 241.336 35.2955 243.347 36.4545C245.376 37.6136 246.944 39.2926 248.052 41.4915C249.177 43.6903 249.731 46.358 249.714 49.4943V74.5H240.458V50.9261C240.458 48.3011 239.776 46.2472 238.413 44.7642C237.066 43.2812 235.2 42.5398 232.813 42.5398C231.194 42.5398 229.754 42.8977 228.492 43.6136C227.248 44.3125 226.268 45.3267 225.552 46.6562C224.853 47.9858 224.504 49.5966 224.504 51.4886ZM259.532 74.5V22.1364H269.018V44.304H293.282V22.1364H302.793V74.5H293.282V52.2557H269.018V74.5H259.532ZM329.832 75.267C325.996 75.267 322.673 74.4233 319.86 72.7358C317.048 71.0483 314.866 68.6875 313.315 65.6534C311.781 62.6193 311.013 59.0739 311.013 55.017C311.013 50.9602 311.781 47.4062 313.315 44.3551C314.866 41.304 317.048 38.9347 319.86 37.2472C322.673 35.5597 325.996 34.7159 329.832 34.7159C333.667 34.7159 336.991 35.5597 339.803 37.2472C342.616 38.9347 344.789 41.304 346.323 44.3551C347.874 47.4062 348.65 50.9602 348.65 55.017C348.65 59.0739 347.874 62.6193 346.323 65.6534C344.789 68.6875 342.616 71.0483 339.803 72.7358C336.991 74.4233 333.667 75.267 329.832 75.267ZM329.883 67.8523C331.962 67.8523 333.701 67.2812 335.099 66.1392C336.496 64.9801 337.536 63.429 338.218 61.4858C338.917 59.5426 339.266 57.3778 339.266 54.9915C339.266 52.5881 338.917 50.4148 338.218 48.4716C337.536 46.5114 336.496 44.9517 335.099 43.7926C333.701 42.6335 331.962 42.054 329.883 42.054C327.752 42.054 325.979 42.6335 324.565 43.7926C323.167 44.9517 322.119 46.5114 321.42 48.4716C320.738 50.4148 320.397 52.5881 320.397 54.9915C320.397 57.3778 320.738 59.5426 321.42 61.4858C322.119 63.429 323.167 64.9801 324.565 66.1392C325.979 67.2812 327.752 67.8523 329.883 67.8523ZM356.506 74.5V35.2273H365.48V41.7727H365.889C366.605 39.5057 367.832 37.7585 369.571 36.5312C371.327 35.2869 373.33 34.6648 375.58 34.6648C376.091 34.6648 376.662 34.6903 377.293 34.7415C377.94 34.7756 378.477 34.8352 378.903 34.9205V43.4347C378.511 43.2983 377.889 43.179 377.037 43.0767C376.202 42.9574 375.392 42.8977 374.608 42.8977C372.92 42.8977 371.403 43.2642 370.057 43.9972C368.727 44.7131 367.679 45.7102 366.912 46.9886C366.145 48.267 365.761 49.7415 365.761 51.4119V74.5H356.506ZM416.092 45.608L407.655 46.5284C407.416 45.6761 406.999 44.875 406.402 44.125C405.822 43.375 405.038 42.7699 404.05 42.3097C403.061 41.8494 401.851 41.6193 400.419 41.6193C398.493 41.6193 396.874 42.0369 395.561 42.8722C394.266 43.7074 393.626 44.7898 393.643 46.1193C393.626 47.2614 394.044 48.1903 394.896 48.9062C395.766 49.6222 397.197 50.2102 399.192 50.6705L405.891 52.1023C409.607 52.9034 412.368 54.1733 414.175 55.9119C415.999 57.6506 416.919 59.9261 416.936 62.7386C416.919 65.2102 416.195 67.392 414.763 69.2841C413.348 71.1591 411.379 72.625 408.857 73.6818C406.334 74.7386 403.436 75.267 400.163 75.267C395.357 75.267 391.487 74.2614 388.555 72.25C385.624 70.2216 383.876 67.4006 383.314 63.7869L392.339 62.9176C392.749 64.6903 393.618 66.0284 394.947 66.9318C396.277 67.8352 398.007 68.2869 400.138 68.2869C402.337 68.2869 404.101 67.8352 405.43 66.9318C406.777 66.0284 407.45 64.9119 407.45 63.5824C407.45 62.4574 407.016 61.5284 406.146 60.7955C405.294 60.0625 403.964 59.5 402.158 59.108L395.459 57.7017C391.692 56.9176 388.905 55.5966 387.098 53.7386C385.291 51.8636 384.396 49.4943 384.413 46.6307C384.396 44.2102 385.053 42.1136 386.382 40.3409C387.729 38.5511 389.595 37.1705 391.982 36.1989C394.385 35.2102 397.155 34.7159 400.291 34.7159C404.893 34.7159 408.516 35.696 411.158 37.6562C413.817 39.6165 415.462 42.267 416.092 45.608ZM441.955 75.267C438.017 75.267 434.616 74.4489 431.753 72.8125C428.906 71.1591 426.716 68.8239 425.182 65.8068C423.648 62.7727 422.881 59.2017 422.881 55.0938C422.881 51.054 423.648 47.5085 425.182 44.4574C426.733 41.3892 428.898 39.0028 431.676 37.2983C434.455 35.5767 437.719 34.7159 441.469 34.7159C443.889 34.7159 446.173 35.108 448.321 35.892C450.486 36.6591 452.395 37.8523 454.048 39.4716C455.719 41.0909 457.031 43.1534 457.986 45.6591C458.94 48.1477 459.418 51.1136 459.418 54.5568V57.3949H427.227V51.1562H450.545C450.528 49.3835 450.145 47.8068 449.395 46.4261C448.645 45.0284 447.597 43.929 446.25 43.1278C444.92 42.3267 443.369 41.9261 441.597 41.9261C439.705 41.9261 438.043 42.3864 436.611 43.3068C435.179 44.2102 434.063 45.4034 433.261 46.8864C432.477 48.3523 432.077 49.9631 432.06 51.7188V57.1648C432.06 59.4489 432.477 61.4091 433.312 63.0455C434.148 64.6648 435.315 65.9091 436.815 66.7784C438.315 67.6307 440.071 68.0568 442.082 68.0568C443.429 68.0568 444.648 67.8693 445.739 67.4943C446.83 67.1023 447.776 66.5312 448.577 65.7812C449.378 65.0312 449.983 64.1023 450.392 62.9943L459.034 63.9659C458.489 66.25 457.449 68.2443 455.915 69.9489C454.398 71.6364 452.455 72.9489 450.085 73.8864C447.716 74.8068 445.006 75.267 441.955 75.267Z" fill="#FAFAFA"/>
<rect x="487" y="3" width="5" height="90" fill="#EAEAEA"/>
<path d="M521.409 68V27.2727H535.151C537.802 27.2727 540.009 27.7367 541.773 28.6648C543.549 29.5928 544.882 30.8589 545.77 32.4631C546.658 34.0672 547.102 35.8902 547.102 37.9318C547.102 39.6288 546.817 41.0805 546.247 42.2869C545.677 43.4934 544.902 44.4678 543.92 45.2102C542.939 45.9527 541.846 46.4896 540.639 46.821V47.1392C541.952 47.232 543.224 47.696 544.457 48.5312C545.69 49.3532 546.705 50.5066 547.5 51.9915C548.295 53.4763 548.693 55.2528 548.693 57.321C548.693 59.3759 548.236 61.2121 547.321 62.8295C546.406 64.4337 545.001 65.6998 543.105 66.6278C541.223 67.5426 538.823 68 535.906 68H521.409ZM525.128 64.6591H535.906C539.048 64.6591 541.368 63.9631 542.866 62.571C544.378 61.179 545.134 59.429 545.134 57.321C545.134 55.7699 544.756 54.3646 544 53.1051C543.258 51.8324 542.204 50.8248 540.838 50.0824C539.486 49.34 537.895 48.9688 536.065 48.9688H525.128V64.6591ZM525.128 45.6676H535.489C537.093 45.6676 538.498 45.3362 539.705 44.6733C540.911 44.0104 541.852 43.0956 542.528 41.929C543.205 40.7623 543.543 39.4299 543.543 37.9318C543.543 35.7708 542.84 34.0142 541.435 32.6619C540.029 31.2964 537.935 30.6136 535.151 30.6136H525.128V45.6676ZM559.397 79.4545C558.694 79.4545 558.038 79.3883 557.428 79.2557C556.818 79.1231 556.335 78.9773 555.977 78.8182L556.931 75.696C558.138 76.0672 559.211 76.1998 560.153 76.0938C561.094 76.0009 561.929 75.5767 562.658 74.821C563.388 74.0786 564.037 72.9384 564.607 71.4006L565.721 68.2983L554.485 37.4545H558.323L567.391 63.3267H567.67L576.738 37.4545H580.576L567.65 72.8324C567.106 74.304 566.437 75.5303 565.641 76.5114C564.846 77.5057 563.924 78.2415 562.877 78.7188C561.843 79.2093 560.683 79.4545 559.397 79.4545ZM635.706 27.2727V68H632.087L608.024 33.8949H607.706V68H603.987V27.2727H607.587L631.729 61.4176H632.047V27.2727H635.706ZM654.33 68.696C652.487 68.696 650.803 68.3381 649.278 67.6222C647.754 66.893 646.541 65.8456 645.639 64.4801C644.738 63.1013 644.287 61.4309 644.287 59.4688C644.287 57.9574 644.572 56.6847 645.142 55.6506C645.712 54.6165 646.521 53.768 647.568 53.1051C648.616 52.4422 649.855 51.9186 651.287 51.5341C652.719 51.1496 654.296 50.8513 656.02 50.6392C657.73 50.4271 659.175 50.2415 660.355 50.0824C661.548 49.9233 662.456 49.6714 663.08 49.3267C663.703 48.982 664.014 48.4252 664.014 47.6562V46.9403C664.014 44.8589 663.391 43.2216 662.145 42.0284C660.912 40.822 659.135 40.2188 656.815 40.2188C654.615 40.2188 652.818 40.7027 651.426 41.6705C650.047 42.6383 649.08 43.7784 648.523 45.0909L645.162 43.8778C645.851 42.2074 646.806 40.875 648.026 39.8807C649.245 38.8731 650.611 38.1506 652.122 37.7131C653.634 37.2623 655.165 37.0369 656.716 37.0369C657.883 37.0369 659.096 37.1894 660.355 37.4943C661.628 37.7992 662.808 38.3295 663.895 39.0852C664.982 39.8277 665.864 40.8684 666.54 42.2074C667.216 43.5331 667.554 45.2169 667.554 47.2585V68H664.014V63.1676H663.795C663.371 64.0691 662.741 64.9441 661.906 65.7926C661.071 66.6411 660.024 67.3371 658.764 67.8807C657.505 68.4242 656.027 68.696 654.33 68.696ZM654.807 65.4545C656.689 65.4545 658.32 65.0369 659.699 64.2017C661.078 63.3665 662.138 62.2595 662.881 60.8807C663.636 59.4886 664.014 57.9574 664.014 56.2869V51.8722C663.749 52.1241 663.305 52.3494 662.682 52.5483C662.072 52.7472 661.363 52.9261 660.554 53.0852C659.759 53.2311 658.963 53.357 658.168 53.4631C657.372 53.5691 656.656 53.6619 656.02 53.7415C654.296 53.9536 652.825 54.285 651.605 54.7358C650.385 55.1866 649.451 55.8097 648.801 56.6051C648.152 57.3873 647.827 58.3949 647.827 59.6278C647.827 61.4839 648.49 62.9223 649.815 63.9432C651.141 64.9508 652.805 65.4545 654.807 65.4545ZM687.967 68.6364C685.462 68.6364 683.268 67.9735 681.385 66.6477C679.502 65.322 678.031 63.4725 676.97 61.0994C675.923 58.7263 675.399 55.9621 675.399 52.8068C675.399 49.6648 675.923 46.9138 676.97 44.554C678.031 42.1809 679.509 40.3381 681.405 39.0256C683.301 37.6998 685.508 37.0369 688.027 37.0369C689.883 37.0369 691.428 37.3684 692.661 38.0312C693.893 38.6809 694.881 39.4896 695.624 40.4574C696.366 41.4252 696.943 42.3665 697.354 43.2812H697.672V27.2727H701.232V68H697.771V62.3324H697.354C696.943 63.2604 696.359 64.215 695.604 65.196C694.848 66.1638 693.847 66.9792 692.601 67.642C691.368 68.3049 689.823 68.6364 687.967 68.6364ZM688.385 65.3949C690.36 65.3949 692.044 64.858 693.436 63.7841C694.828 62.697 695.889 61.2055 696.618 59.3097C697.36 57.4006 697.732 55.2131 697.732 52.7472C697.732 50.3078 697.367 48.1534 696.638 46.2841C695.909 44.4015 694.848 42.9299 693.456 41.8693C692.064 40.7955 690.374 40.2585 688.385 40.2585C686.343 40.2585 684.62 40.8153 683.214 41.929C681.822 43.0294 680.762 44.5208 680.033 46.4034C679.317 48.286 678.959 50.4006 678.959 52.7472C678.959 55.1203 679.323 57.2614 680.053 59.1705C680.782 61.0795 681.842 62.5975 683.234 63.7244C684.64 64.8381 686.357 65.3949 688.385 65.3949ZM723.663 68.6364C720.813 68.6364 718.347 67.9735 716.266 66.6477C714.184 65.3087 712.573 63.4593 711.433 61.0994C710.306 58.7263 709.743 55.9953 709.743 52.9062C709.743 49.8305 710.306 47.0994 711.433 44.7131C712.573 42.3134 714.144 40.4375 716.146 39.0852C718.161 37.7197 720.488 37.0369 723.126 37.0369C724.784 37.0369 726.381 37.3419 727.919 37.9517C729.457 38.5483 730.836 39.4697 732.055 40.7159C733.288 41.9489 734.263 43.5066 734.979 45.3892C735.695 47.2585 736.053 49.4725 736.053 52.0312V53.7812H712.189V50.6591H732.433C732.433 48.697 732.036 46.9337 731.24 45.3693C730.458 43.7917 729.364 42.5455 727.959 41.6307C726.567 40.7159 724.956 40.2585 723.126 40.2585C721.191 40.2585 719.487 40.7756 718.016 41.8097C716.544 42.8437 715.391 44.2093 714.555 45.9062C713.733 47.6032 713.316 49.4593 713.303 51.4744V53.3438C713.303 55.7699 713.72 57.8911 714.555 59.7074C715.404 61.5104 716.604 62.9091 718.155 63.9034C719.706 64.8977 721.542 65.3949 723.663 65.3949C725.108 65.3949 726.375 65.1695 727.462 64.7188C728.562 64.268 729.483 63.6648 730.226 62.9091C730.982 62.1402 731.552 61.2983 731.936 60.3835L735.297 61.4773C734.833 62.7633 734.071 63.9498 733.01 65.0369C731.963 66.1241 730.65 66.9991 729.072 67.6619C727.508 68.3116 725.705 68.6364 723.663 68.6364ZM743.853 68V37.4545H747.293V42.1477H747.552C748.162 40.6098 749.222 39.3703 750.734 38.429C752.258 37.4744 753.982 36.9972 755.904 36.9972C756.196 36.9972 756.521 37.0038 756.879 37.017C757.237 37.0303 757.535 37.0436 757.773 37.0568V40.6562C757.614 40.6297 757.336 40.59 756.938 40.5369C756.54 40.4839 756.11 40.4574 755.646 40.4574C754.055 40.4574 752.636 40.7955 751.39 41.4716C750.157 42.1345 749.183 43.0559 748.467 44.2358C747.751 45.4157 747.393 46.7614 747.393 48.2727V68H743.853ZM767.965 27.2727V30.8523C767.965 31.9394 767.766 33.0994 767.369 34.3324C766.984 35.5521 766.414 36.7386 765.658 37.892C764.916 39.0322 764.014 40.0265 762.954 40.875L761.025 39.1847C762.019 38.018 762.861 36.7254 763.55 35.3068C764.24 33.875 764.585 32.41 764.585 30.9119V27.2727H767.965ZM790.844 44.1562L787.603 45.071C787.285 44.1562 786.834 43.3277 786.251 42.5852C785.667 41.8428 784.905 41.2528 783.964 40.8153C783.036 40.3778 781.882 40.1591 780.504 40.1591C778.435 40.1591 776.738 40.6496 775.413 41.6307C774.087 42.6117 773.424 43.8778 773.424 45.429C773.424 46.7415 773.875 47.8087 774.776 48.6307C775.691 49.4394 777.096 50.0824 778.992 50.5597L783.606 51.6932C786.165 52.3163 788.08 53.304 789.353 54.6562C790.639 56.0085 791.282 57.7055 791.282 59.7472C791.282 61.4706 790.805 63.0019 789.85 64.3409C788.896 65.6799 787.563 66.7339 785.853 67.5028C784.156 68.2585 782.187 68.6364 779.947 68.6364C776.964 68.6364 774.504 67.9669 772.569 66.6278C770.633 65.2756 769.394 63.3267 768.85 60.7812L772.251 59.946C772.688 61.7623 773.543 63.1345 774.816 64.0625C776.102 64.9905 777.792 65.4545 779.887 65.4545C782.234 65.4545 784.11 64.9309 785.515 63.8835C786.92 62.8229 787.623 61.4972 787.623 59.9062C787.623 58.6733 787.212 57.6392 786.39 56.804C785.568 55.9555 784.322 55.3324 782.651 54.9347L777.66 53.7415C775.008 53.1051 773.046 52.0975 771.773 50.7188C770.501 49.34 769.864 47.6297 769.864 45.5881C769.864 43.9044 770.322 42.4261 771.237 41.1534C772.151 39.8674 773.411 38.8598 775.015 38.1307C776.619 37.4015 778.449 37.0369 780.504 37.0369C783.301 37.0369 785.535 37.6733 787.205 38.946C788.889 40.2055 790.102 41.9422 790.844 44.1562ZM847.416 40H843.678C843.399 38.608 842.895 37.322 842.166 36.142C841.45 34.9489 840.549 33.9081 839.462 33.0199C838.375 32.1316 837.142 31.4422 835.763 30.9517C834.384 30.4612 832.893 30.2159 831.288 30.2159C828.716 30.2159 826.37 30.8854 824.249 32.2244C822.141 33.5634 820.45 35.5322 819.178 38.1307C817.918 40.7159 817.288 43.8845 817.288 47.6364C817.288 51.4148 817.918 54.5966 819.178 57.1818C820.45 59.767 822.141 61.7292 824.249 63.0682C826.37 64.3939 828.716 65.0568 831.288 65.0568C832.893 65.0568 834.384 64.8116 835.763 64.321C837.142 63.8305 838.375 63.1477 839.462 62.2727C840.549 61.3845 841.45 60.3437 842.166 59.1506C842.895 57.9574 843.399 56.6648 843.678 55.2727H847.416C847.085 57.142 846.462 58.8854 845.547 60.5028C844.645 62.107 843.492 63.5123 842.087 64.7188C840.695 65.9252 839.09 66.8665 837.274 67.5426C835.458 68.2187 833.463 68.5568 831.288 68.5568C827.868 68.5568 824.832 67.7017 822.18 65.9915C819.529 64.268 817.447 61.8419 815.936 58.7131C814.438 55.5843 813.689 51.892 813.689 47.6364C813.689 43.3807 814.438 39.6884 815.936 36.5597C817.447 33.4309 819.529 31.0114 822.18 29.3011C824.832 27.5776 827.868 26.7159 831.288 26.7159C833.463 26.7159 835.458 27.054 837.274 27.7301C839.09 28.393 840.695 29.3343 842.087 30.554C843.492 31.7604 844.645 33.1657 845.547 34.7699C846.462 36.3741 847.085 38.1174 847.416 40ZM867.288 68.6364C864.649 68.6364 862.316 67.9669 860.288 66.6278C858.272 65.2888 856.695 63.4394 855.555 61.0795C854.415 58.7064 853.844 55.9687 853.844 52.8665C853.844 49.7377 854.415 46.9867 855.555 44.6136C856.695 42.2273 858.272 40.3712 860.288 39.0455C862.316 37.7064 864.649 37.0369 867.288 37.0369C869.926 37.0369 872.253 37.7064 874.268 39.0455C876.283 40.3845 877.861 42.2405 879.001 44.6136C880.154 46.9867 880.731 49.7377 880.731 52.8665C880.731 55.9687 880.161 58.7064 879.021 61.0795C877.88 63.4394 876.296 65.2888 874.268 66.6278C872.253 67.9669 869.926 68.6364 867.288 68.6364ZM867.288 65.3949C869.409 65.3949 871.205 64.8248 872.677 63.6847C874.148 62.5445 875.262 61.0265 876.018 59.1307C876.787 57.2348 877.171 55.1468 877.171 52.8665C877.171 50.5862 876.787 48.4915 876.018 46.5824C875.262 44.6733 874.148 43.142 872.677 41.9886C871.205 40.8352 869.409 40.2585 867.288 40.2585C865.18 40.2585 863.383 40.8352 861.898 41.9886C860.427 43.142 859.307 44.6733 858.538 46.5824C857.782 48.4915 857.404 50.5862 857.404 52.8665C857.404 55.1468 857.782 57.2348 858.538 59.1307C859.307 61.0265 860.427 62.5445 861.898 63.6847C863.37 64.8248 865.166 65.3949 867.288 65.3949ZM888.501 68V37.4545H891.942V42.1477H892.2C892.81 40.6098 893.871 39.3703 895.382 38.429C896.907 37.4744 898.63 36.9972 900.553 36.9972C900.844 36.9972 901.169 37.0038 901.527 37.017C901.885 37.0303 902.183 37.0436 902.422 37.0568V40.6562C902.263 40.6297 901.984 40.59 901.587 40.5369C901.189 40.4839 900.758 40.4574 900.294 40.4574C898.703 40.4574 897.285 40.7955 896.038 41.4716C894.805 42.1345 893.831 43.0559 893.115 44.2358C892.399 45.4157 892.041 46.7614 892.041 48.2727V68H888.501ZM908.462 79.4545V37.4545H911.903V43.2812H912.32C912.745 42.3665 913.328 41.4318 914.07 40.4773C914.813 39.5095 915.794 38.6941 917.013 38.0312C918.246 37.3684 919.798 37.0369 921.667 37.0369C924.186 37.0369 926.387 37.6998 928.269 39.0256C930.165 40.3381 931.637 42.1809 932.684 44.554C933.745 46.9138 934.275 49.6648 934.275 52.8068C934.275 55.9621 933.745 58.7263 932.684 61.0994C931.637 63.4725 930.165 65.322 928.269 66.6477C926.387 67.9735 924.199 68.6364 921.707 68.6364C919.864 68.6364 918.319 68.3049 917.073 67.642C915.84 66.9792 914.839 66.1638 914.07 65.196C913.315 64.215 912.731 63.2604 912.32 62.3324H912.002V79.4545H908.462ZM911.962 52.7472C911.962 55.2131 912.327 57.4006 913.056 59.3097C913.799 61.2055 914.859 62.697 916.238 63.7841C917.63 64.858 919.314 65.3949 921.289 65.3949C923.317 65.3949 925.028 64.8381 926.42 63.7244C927.825 62.5975 928.892 61.0795 929.621 59.1705C930.364 57.2614 930.735 55.1203 930.735 52.7472C930.735 50.4006 930.371 48.286 929.641 46.4034C928.925 44.5208 927.865 43.0294 926.46 41.929C925.054 40.8153 923.331 40.2585 921.289 40.2585C919.3 40.2585 917.61 40.7955 916.218 41.8693C914.826 42.9299 913.765 44.4015 913.036 46.2841C912.32 48.1534 911.962 50.3078 911.962 52.7472ZM953.913 68.6364C951.274 68.6364 948.941 67.9669 946.913 66.6278C944.897 65.2888 943.32 63.4394 942.18 61.0795C941.04 58.7064 940.469 55.9687 940.469 52.8665C940.469 49.7377 941.04 46.9867 942.18 44.6136C943.32 42.2273 944.897 40.3712 946.913 39.0455C948.941 37.7064 951.274 37.0369 953.913 37.0369C956.551 37.0369 958.878 37.7064 960.893 39.0455C962.908 40.3845 964.486 42.2405 965.626 44.6136C966.779 46.9867 967.356 49.7377 967.356 52.8665C967.356 55.9687 966.786 58.7064 965.646 61.0795C964.505 63.4394 962.921 65.2888 960.893 66.6278C958.878 67.9669 956.551 68.6364 953.913 68.6364ZM953.913 65.3949C956.034 65.3949 957.83 64.8248 959.302 63.6847C960.773 62.5445 961.887 61.0265 962.643 59.1307C963.412 57.2348 963.796 55.1468 963.796 52.8665C963.796 50.5862 963.412 48.4915 962.643 46.5824C961.887 44.6733 960.773 43.142 959.302 41.9886C957.83 40.8352 956.034 40.2585 953.913 40.2585C951.805 40.2585 950.008 40.8352 948.523 41.9886C947.052 43.142 945.932 44.6733 945.163 46.5824C944.407 48.4915 944.029 50.5862 944.029 52.8665C944.029 55.1468 944.407 57.2348 945.163 59.1307C945.932 61.0265 947.052 62.5445 948.523 63.6847C949.995 64.8248 951.791 65.3949 953.913 65.3949ZM975.126 68V37.4545H978.567V42.1477H978.825C979.435 40.6098 980.496 39.3703 982.007 38.429C983.532 37.4744 985.255 36.9972 987.178 36.9972C987.469 36.9972 987.794 37.0038 988.152 37.017C988.51 37.0303 988.808 37.0436 989.047 37.0568V40.6562C988.888 40.6297 988.609 40.59 988.212 40.5369C987.814 40.4839 987.383 40.4574 986.919 40.4574C985.328 40.4574 983.91 40.7955 982.663 41.4716C981.43 42.1345 980.456 43.0559 979.74 44.2358C979.024 45.4157 978.666 46.7614 978.666 48.2727V68H975.126ZM1003.62 68.696C1001.78 68.696 1000.09 68.3381 998.567 67.6222C997.043 66.893 995.83 65.8456 994.928 64.4801C994.027 63.1013 993.576 61.4309 993.576 59.4688C993.576 57.9574 993.861 56.6847 994.431 55.6506C995.001 54.6165 995.81 53.768 996.857 53.1051C997.905 52.4422 999.144 51.9186 1000.58 51.5341C1002.01 51.1496 1003.59 50.8513 1005.31 50.6392C1007.02 50.4271 1008.46 50.2415 1009.64 50.0824C1010.84 49.9233 1011.75 49.6714 1012.37 49.3267C1012.99 48.982 1013.3 48.4252 1013.3 47.6562V46.9403C1013.3 44.8589 1012.68 43.2216 1011.43 42.0284C1010.2 40.822 1008.42 40.2188 1006.1 40.2188C1003.9 40.2188 1002.11 40.7027 1000.72 41.6705C999.336 42.6383 998.369 43.7784 997.812 45.0909L994.451 43.8778C995.14 42.2074 996.095 40.875 997.315 39.8807C998.534 38.8731 999.9 38.1506 1001.41 37.7131C1002.92 37.2623 1004.45 37.0369 1006 37.0369C1007.17 37.0369 1008.38 37.1894 1009.64 37.4943C1010.92 37.7992 1012.1 38.3295 1013.18 39.0852C1014.27 39.8277 1015.15 40.8684 1015.83 42.2074C1016.5 43.5331 1016.84 45.2169 1016.84 47.2585V68H1013.3V63.1676H1013.08C1012.66 64.0691 1012.03 64.9441 1011.2 65.7926C1010.36 66.6411 1009.31 67.3371 1008.05 67.8807C1006.79 68.4242 1005.32 68.696 1003.62 68.696ZM1004.1 65.4545C1005.98 65.4545 1007.61 65.0369 1008.99 64.2017C1010.37 63.3665 1011.43 62.2595 1012.17 60.8807C1012.93 59.4886 1013.3 57.9574 1013.3 56.2869V51.8722C1013.04 52.1241 1012.59 52.3494 1011.97 52.5483C1011.36 52.7472 1010.65 52.9261 1009.84 53.0852C1009.05 53.2311 1008.25 53.357 1007.46 53.4631C1006.66 53.5691 1005.95 53.6619 1005.31 53.7415C1003.59 53.9536 1002.11 54.285 1000.89 54.7358C999.674 55.1866 998.74 55.8097 998.09 56.6051C997.441 57.3873 997.116 58.3949 997.116 59.6278C997.116 61.4839 997.779 62.9223 999.104 63.9432C1000.43 64.9508 1002.09 65.4545 1004.1 65.4545ZM1038.29 37.4545V40.5369H1023.71V37.4545H1038.29ZM1028.27 30.1364H1031.83V60.0256C1031.83 61.2983 1032.05 62.2992 1032.48 63.0284C1032.92 63.7443 1033.49 64.2547 1034.19 64.5597C1034.9 64.8513 1035.65 64.9972 1036.44 64.9972C1036.91 64.9972 1037.3 64.9706 1037.63 64.9176C1037.97 64.8513 1038.26 64.785 1038.51 64.7188L1039.26 67.9205C1038.92 68.053 1038.5 68.1723 1037.99 68.2784C1037.49 68.3977 1036.87 68.4574 1036.12 68.4574C1034.82 68.4574 1033.57 68.1723 1032.36 67.6023C1031.17 67.0322 1030.19 66.1837 1029.42 65.0568C1028.65 63.9299 1028.27 62.5312 1028.27 60.8608V30.1364ZM1046.37 68V37.4545H1049.93V68H1046.37ZM1048.18 32.2045C1047.45 32.2045 1046.83 31.9593 1046.31 31.4688C1045.79 30.965 1045.53 30.3617 1045.53 29.6591C1045.53 28.9564 1045.79 28.3598 1046.31 27.8693C1046.83 27.3655 1047.45 27.1136 1048.18 27.1136C1048.91 27.1136 1049.53 27.3655 1050.05 27.8693C1050.57 28.3598 1050.82 28.9564 1050.82 29.6591C1050.82 30.3617 1050.57 30.965 1050.05 31.4688C1049.53 31.9593 1048.91 32.2045 1048.18 32.2045ZM1071.16 68.6364C1068.52 68.6364 1066.19 67.9669 1064.16 66.6278C1062.15 65.2888 1060.57 63.4394 1059.43 61.0795C1058.29 58.7064 1057.72 55.9687 1057.72 52.8665C1057.72 49.7377 1058.29 46.9867 1059.43 44.6136C1060.57 42.2273 1062.15 40.3712 1064.16 39.0455C1066.19 37.7064 1068.52 37.0369 1071.16 37.0369C1073.8 37.0369 1076.13 37.7064 1078.14 39.0455C1080.16 40.3845 1081.74 42.2405 1082.88 44.6136C1084.03 46.9867 1084.61 49.7377 1084.61 52.8665C1084.61 55.9687 1084.04 58.7064 1082.9 61.0795C1081.76 63.4394 1080.17 65.2888 1078.14 66.6278C1076.13 67.9669 1073.8 68.6364 1071.16 68.6364ZM1071.16 65.3949C1073.28 65.3949 1075.08 64.8248 1076.55 63.6847C1078.02 62.5445 1079.14 61.0265 1079.89 59.1307C1080.66 57.2348 1081.05 55.1468 1081.05 52.8665C1081.05 50.5862 1080.66 48.4915 1079.89 46.5824C1079.14 44.6733 1078.02 43.142 1076.55 41.9886C1075.08 40.8352 1073.28 40.2585 1071.16 40.2585C1069.05 40.2585 1067.26 40.8352 1065.77 41.9886C1064.3 43.142 1063.18 44.6733 1062.41 46.5824C1061.66 48.4915 1061.28 50.5862 1061.28 52.8665C1061.28 55.1468 1061.66 57.2348 1062.41 59.1307C1063.18 61.0265 1064.3 62.5445 1065.77 63.6847C1067.25 64.8248 1069.04 65.3949 1071.16 65.3949ZM1095.92 48.9091V68H1092.38V37.4545H1095.82V42.2472H1096.13C1096.85 40.6828 1097.96 39.4299 1099.48 38.4886C1101 37.5341 1102.88 37.0568 1105.12 37.0568C1107.18 37.0568 1108.98 37.4877 1110.53 38.3494C1112.1 39.1979 1113.31 40.4508 1114.17 42.108C1115.05 43.7652 1115.48 45.8002 1115.48 48.2131V68H1111.94V48.4318C1111.94 45.9261 1111.24 43.9441 1109.84 42.4858C1108.44 41.0275 1106.58 40.2983 1104.23 40.2983C1102.62 40.2983 1101.2 40.643 1099.95 41.3324C1098.71 42.0218 1097.72 43.0161 1096.99 44.3153C1096.27 45.6013 1095.92 47.1326 1095.92 48.9091Z" fill="#DDDDDD"/>
</svg>
