<svg width="115" height="82" viewBox="0 0 115 82" fill="none" xmlns="http://www.w3.org/2000/svg">
<path d="M81.5 24C81.5 37.2548 70.7548 48 57.5 48C44.2452 48 33.5 37.2548 33.5 24C33.5 10.7452 44.2452 0 57.5 0C70.7548 0 81.5 10.7452 81.5 24ZM41.2196 24C41.2196 32.9914 48.5086 40.2804 57.5 40.2804C66.4914 40.2804 73.7804 32.9914 73.7804 24C73.7804 15.0086 66.4914 7.71963 57.5 7.71963C48.5086 7.71963 41.2196 15.0086 41.2196 24Z" fill="#111111"/>
<path d="M4.88352 58.5455V76H1.72159V58.5455H4.88352ZM8.17116 76V62.9091H11.1626V65.0909H11.299C11.5376 64.3352 11.9467 63.7528 12.5263 63.3438C13.1115 62.929 13.7791 62.7216 14.5291 62.7216C14.6996 62.7216 14.8899 62.7301 15.1001 62.7472C15.3161 62.7585 15.495 62.7784 15.6371 62.8068V65.6449C15.5064 65.5994 15.299 65.5597 15.0149 65.5256C14.7365 65.4858 14.4666 65.4659 14.2053 65.4659C13.6428 65.4659 13.1371 65.5881 12.6882 65.8324C12.245 66.071 11.8956 66.4034 11.6399 66.8295C11.3842 67.2557 11.2564 67.7472 11.2564 68.304V76H8.17116ZM22.858 76.2557C21.5795 76.2557 20.4716 75.9744 19.5341 75.4119C18.5966 74.8494 17.8693 74.0625 17.3523 73.0511C16.8409 72.0398 16.5852 70.858 16.5852 69.5057C16.5852 68.1534 16.8409 66.9687 17.3523 65.9517C17.8693 64.9347 18.5966 64.1449 19.5341 63.5824C20.4716 63.0199 21.5795 62.7386 22.858 62.7386C24.1364 62.7386 25.2443 63.0199 26.1818 63.5824C27.1193 64.1449 27.8438 64.9347 28.3551 65.9517C28.8722 66.9687 29.1307 68.1534 29.1307 69.5057C29.1307 70.858 28.8722 72.0398 28.3551 73.0511C27.8438 74.0625 27.1193 74.8494 26.1818 75.4119C25.2443 75.9744 24.1364 76.2557 22.858 76.2557ZM22.875 73.7841C23.5682 73.7841 24.1477 73.5937 24.6136 73.2131C25.0795 72.8267 25.4261 72.3097 25.6534 71.6619C25.8864 71.0142 26.0028 70.2926 26.0028 69.4972C26.0028 68.696 25.8864 67.9716 25.6534 67.3239C25.4261 66.6705 25.0795 66.1506 24.6136 65.7642C24.1477 65.3778 23.5682 65.1847 22.875 65.1847C22.1648 65.1847 21.5739 65.3778 21.1023 65.7642C20.6364 66.1506 20.2869 66.6705 20.054 67.3239C19.8267 67.9716 19.7131 68.696 19.7131 69.4972C19.7131 70.2926 19.8267 71.0142 20.054 71.6619C20.2869 72.3097 20.6364 72.8267 21.1023 73.2131C21.5739 73.5937 22.1648 73.7841 22.875 73.7841ZM34.8345 68.3295V76H31.7493V62.9091H34.6982V65.1335H34.8516C35.1527 64.4006 35.6328 63.8182 36.2919 63.3864C36.9567 62.9545 37.7777 62.7386 38.755 62.7386C39.6584 62.7386 40.4453 62.9318 41.1158 63.3182C41.7919 63.7045 42.3146 64.2642 42.6839 64.9972C43.0589 65.7301 43.2436 66.6193 43.2379 67.6648V76H40.1527V68.142C40.1527 67.267 39.9254 66.5824 39.4709 66.0881C39.022 65.5937 38.3999 65.3466 37.6044 65.3466C37.0646 65.3466 36.5845 65.4659 36.1641 65.7045C35.7493 65.9375 35.4226 66.2756 35.1839 66.7188C34.951 67.1619 34.8345 67.6989 34.8345 68.3295ZM46.5107 76V58.5455H49.6726V65.9347H57.7607V58.5455H60.9311V76H57.7607V68.5852H49.6726V76H46.5107ZM69.9439 76.2557C68.6655 76.2557 67.5575 75.9744 66.62 75.4119C65.6825 74.8494 64.9553 74.0625 64.4382 73.0511C63.9268 72.0398 63.6712 70.858 63.6712 69.5057C63.6712 68.1534 63.9268 66.9687 64.4382 65.9517C64.9553 64.9347 65.6825 64.1449 66.62 63.5824C67.5575 63.0199 68.6655 62.7386 69.9439 62.7386C71.2223 62.7386 72.3303 63.0199 73.2678 63.5824C74.2053 64.1449 74.9297 64.9347 75.4411 65.9517C75.9581 66.9687 76.2166 68.1534 76.2166 69.5057C76.2166 70.858 75.9581 72.0398 75.4411 73.0511C74.9297 74.0625 74.2053 74.8494 73.2678 75.4119C72.3303 75.9744 71.2223 76.2557 69.9439 76.2557ZM69.9609 73.7841C70.6541 73.7841 71.2337 73.5937 71.6996 73.2131C72.1655 72.8267 72.5121 72.3097 72.7393 71.6619C72.9723 71.0142 73.0888 70.2926 73.0888 69.4972C73.0888 68.696 72.9723 67.9716 72.7393 67.3239C72.5121 66.6705 72.1655 66.1506 71.6996 65.7642C71.2337 65.3778 70.6541 65.1847 69.9609 65.1847C69.2507 65.1847 68.6598 65.3778 68.1882 65.7642C67.7223 66.1506 67.3729 66.6705 67.1399 67.3239C66.9126 67.9716 66.799 68.696 66.799 69.4972C66.799 70.2926 66.9126 71.0142 67.1399 71.6619C67.3729 72.3097 67.7223 72.8267 68.1882 73.2131C68.6598 73.5937 69.2507 73.7841 69.9609 73.7841ZM78.8352 76V62.9091H81.8267V65.0909H81.9631C82.2017 64.3352 82.6108 63.7528 83.1903 63.3438C83.7756 62.929 84.4432 62.7216 85.1932 62.7216C85.3636 62.7216 85.554 62.7301 85.7642 62.7472C85.9801 62.7585 86.1591 62.7784 86.3011 62.8068V65.6449C86.1705 65.5994 85.9631 65.5597 85.679 65.5256C85.4006 65.4858 85.1307 65.4659 84.8693 65.4659C84.3068 65.4659 83.8011 65.5881 83.3523 65.8324C82.9091 66.071 82.5597 66.4034 82.304 66.8295C82.0483 67.2557 81.9205 67.7472 81.9205 68.304V76H78.8352ZM98.6974 66.3693L95.8849 66.6761C95.8054 66.392 95.6662 66.125 95.4673 65.875C95.2741 65.625 95.0128 65.4233 94.6832 65.2699C94.3537 65.1165 93.9503 65.0398 93.473 65.0398C92.831 65.0398 92.2912 65.179 91.8537 65.4574C91.4219 65.7358 91.2088 66.0966 91.2145 66.5398C91.2088 66.9205 91.348 67.2301 91.6321 67.4688C91.9219 67.7074 92.3991 67.9034 93.0639 68.0568L95.2969 68.5341C96.5355 68.8011 97.456 69.2244 98.0582 69.804C98.6662 70.3835 98.973 71.142 98.9787 72.0795C98.973 72.9034 98.7315 73.6307 98.2543 74.2614C97.7827 74.8864 97.1264 75.375 96.2855 75.7273C95.4446 76.0795 94.4787 76.2557 93.3878 76.2557C91.7855 76.2557 90.4957 75.9205 89.5185 75.25C88.5412 74.5739 87.9588 73.6335 87.7713 72.429L90.7798 72.1392C90.9162 72.7301 91.206 73.1761 91.6491 73.4773C92.0923 73.7784 92.669 73.929 93.3793 73.929C94.1122 73.929 94.7003 73.7784 95.1435 73.4773C95.5923 73.1761 95.8168 72.804 95.8168 72.3608C95.8168 71.9858 95.6719 71.6761 95.3821 71.4318C95.098 71.1875 94.6548 71 94.0526 70.8693L91.8196 70.4006C90.5639 70.1392 89.6349 69.6989 89.0327 69.0795C88.4304 68.4545 88.1321 67.6648 88.1378 66.7102C88.1321 65.9034 88.3509 65.2045 88.794 64.6136C89.2429 64.017 89.8651 63.5568 90.6605 63.233C91.4616 62.9034 92.3849 62.7386 93.4304 62.7386C94.9645 62.7386 96.1719 63.0653 97.0526 63.7188C97.9389 64.3722 98.4872 65.2557 98.6974 66.3693ZM107.318 76.2557C106.006 76.2557 104.872 75.983 103.918 75.4375C102.969 74.8864 102.239 74.108 101.727 73.1023C101.216 72.0909 100.96 70.9006 100.96 69.5312C100.96 68.1847 101.216 67.0028 101.727 65.9858C102.244 64.9631 102.966 64.1676 103.892 63.5994C104.818 63.0256 105.906 62.7386 107.156 62.7386C107.963 62.7386 108.724 62.8693 109.44 63.1307C110.162 63.3864 110.798 63.7841 111.349 64.3239C111.906 64.8636 112.344 65.5511 112.662 66.3864C112.98 67.2159 113.139 68.2045 113.139 69.3523V70.2983H102.409V68.2188H110.182C110.176 67.6278 110.048 67.1023 109.798 66.642C109.548 66.1761 109.199 65.8097 108.75 65.5426C108.307 65.2756 107.79 65.142 107.199 65.142C106.568 65.142 106.014 65.2955 105.537 65.6023C105.06 65.9034 104.688 66.3011 104.42 66.7955C104.159 67.2841 104.026 67.821 104.02 68.4062V70.2216C104.02 70.983 104.159 71.6364 104.438 72.1818C104.716 72.7216 105.105 73.1364 105.605 73.4261C106.105 73.7102 106.69 73.8523 107.361 73.8523C107.81 73.8523 108.216 73.7898 108.58 73.6648C108.943 73.5341 109.259 73.3438 109.526 73.0938C109.793 72.8438 109.994 72.5341 110.131 72.1648L113.011 72.4886C112.83 73.25 112.483 73.9148 111.972 74.483C111.466 75.0455 110.818 75.483 110.028 75.7955C109.239 76.1023 108.335 76.2557 107.318 76.2557Z" fill="black"/>
</svg>
