<svg width="900" height="93" viewBox="0 0 900 93" fill="none" xmlns="http://www.w3.org/2000/svg">
<path d="M52.0736 0.367188L104.147 92.3387H0L52.0736 0.367188Z" fill="white"/>
<path d="M175.809 17.3819V76.2437H165.224L140.008 39.1964H139.583V76.2437H127.329V17.3819H138.084L163.102 54.4005H163.611V17.3819H175.809Z" fill="white"/>
<path d="M198.103 77.0772C195.329 77.0772 192.858 76.5886 190.688 75.6114C188.518 74.615 186.801 73.1492 185.537 71.214C184.292 69.2596 183.669 66.8262 183.669 63.9138C183.669 61.4612 184.113 59.4014 184.999 57.7344C185.886 56.0675 187.094 54.7262 188.622 53.7107C190.15 52.6952 191.886 51.9287 193.829 51.4114C195.791 50.8941 197.848 50.53 199.999 50.3192C202.527 50.051 204.565 49.8019 206.112 49.572C207.659 49.3229 208.782 48.9588 209.48 48.4798C210.178 48.0008 210.527 47.2918 210.527 46.353V46.1805C210.527 44.3602 209.961 42.9519 208.829 41.9556C207.716 40.9592 206.131 40.461 204.074 40.461C201.904 40.461 200.178 40.9496 198.895 41.9268C197.612 42.8849 196.763 44.092 196.348 45.5482L185.197 44.6285C185.763 41.946 186.877 39.6275 188.537 37.6731C190.197 35.6996 192.339 34.1859 194.961 33.132C197.603 32.059 200.659 31.5225 204.131 31.5225C206.546 31.5225 208.857 31.81 211.064 32.3848C213.291 32.9596 215.262 33.8506 216.979 35.0577C218.715 36.2648 220.083 37.8168 221.083 39.7138C222.083 41.5915 222.583 43.8429 222.583 46.4679V76.2437H211.149V70.1218H210.81C210.112 71.5014 209.178 72.7181 208.008 73.772C206.838 74.8067 205.433 75.621 203.791 76.215C202.15 76.7898 200.254 77.0772 198.103 77.0772ZM201.555 68.6273C203.329 68.6273 204.895 68.2728 206.253 67.5639C207.612 66.8358 208.678 65.8586 209.451 64.6323C210.225 63.406 210.612 62.0169 210.612 60.4648V55.78C210.234 56.0291 209.715 56.2591 209.055 56.4698C208.414 56.6614 207.687 56.8435 206.876 57.0159C206.065 57.1692 205.253 57.3129 204.442 57.447C203.631 57.562 202.895 57.6674 202.235 57.7632C200.82 57.9739 199.584 58.3093 198.527 58.7691C197.471 59.229 196.65 59.8517 196.065 60.6373C195.48 61.4037 195.188 62.3618 195.188 63.5114C195.188 65.1784 195.782 66.4526 196.971 67.334C198.178 68.1962 199.706 68.6273 201.555 68.6273Z" fill="white"/>
<path d="M247.955 76.9622C244.653 76.9622 241.662 76.1 238.983 74.3755C236.323 72.6319 234.21 70.074 232.644 66.7017C231.097 63.3102 230.323 59.1523 230.323 54.228C230.323 49.1696 231.125 44.9638 232.729 41.6107C234.333 38.2384 236.465 35.7187 239.125 34.0518C241.804 32.3656 244.738 31.5225 247.926 31.5225C250.36 31.5225 252.388 31.9441 254.011 32.7872C255.653 33.6111 256.973 34.6457 257.973 35.8912C258.992 37.1175 259.766 38.3246 260.294 39.5126H260.662V17.3819H272.69V76.2437H260.803V69.1734H260.294C259.728 70.3997 258.926 71.6164 257.888 72.8235C256.869 74.0115 255.539 74.9983 253.898 75.7839C252.275 76.5694 250.294 76.9622 247.955 76.9622ZM251.775 67.219C253.719 67.219 255.36 66.6825 256.7 65.6095C258.058 64.5173 259.096 62.9941 259.813 61.0397C260.549 59.0853 260.916 56.7956 260.916 54.1705C260.916 51.5455 260.558 49.2654 259.841 47.3302C259.124 45.3949 258.086 43.9004 256.728 42.8465C255.369 41.7927 253.719 41.2658 251.775 41.2658C249.794 41.2658 248.124 41.8119 246.766 42.904C245.408 43.9962 244.379 45.5099 243.681 47.4451C242.983 49.3804 242.634 51.6222 242.634 54.1705C242.634 56.7381 242.983 59.0086 243.681 60.9822C244.398 62.9366 245.426 64.4694 246.766 65.5808C248.124 66.6729 249.794 67.219 251.775 67.219Z" fill="white"/>
<path d="M302.413 77.1059C297.941 77.1059 294.092 76.1862 290.866 74.3468C287.658 72.4882 285.187 69.8632 283.451 66.4717C281.715 63.0611 280.847 59.0278 280.847 54.3717C280.847 49.8306 281.715 45.8452 283.451 42.4154C285.187 38.9857 287.63 36.3127 290.781 34.3967C293.951 32.4806 297.668 31.5225 301.932 31.5225C304.799 31.5225 307.469 31.992 309.941 32.9309C312.431 33.8506 314.601 35.2397 316.45 37.0983C318.318 38.9569 319.771 41.2945 320.808 44.1112C321.846 46.9086 322.365 50.1851 322.365 53.9406V57.3033H285.659V49.7157H311.016C311.016 47.9529 310.639 46.3913 309.884 45.0309C309.129 43.6705 308.082 42.607 306.743 41.8406C305.422 41.055 303.884 40.6622 302.13 40.6622C300.3 40.6622 298.677 41.0933 297.262 41.9556C295.866 42.7986 294.771 43.9387 293.979 45.3758C293.187 46.7937 292.781 48.3744 292.762 50.118V57.3321C292.762 59.5164 293.158 61.4037 293.951 62.9941C294.762 64.5844 295.903 65.8107 297.375 66.6729C298.847 67.5352 300.592 67.9663 302.611 67.9663C303.95 67.9663 305.177 67.7747 306.29 67.3914C307.403 67.0082 308.356 66.4334 309.148 65.667C309.941 64.9006 310.544 63.9617 310.96 62.8504L322.11 63.5976C321.544 66.3184 320.384 68.6944 318.629 70.7254C316.893 72.7373 314.648 74.3085 311.893 75.439C309.158 76.5503 305.997 77.1059 302.413 77.1059Z" fill="white"/>
<path d="M330.232 76.2437V32.0974H341.921V39.8H342.374C343.166 37.06 344.496 34.9906 346.364 33.5919C348.232 32.174 350.383 31.4651 352.817 31.4651C353.42 31.4651 354.071 31.5034 354.769 31.58C355.467 31.6567 356.081 31.7621 356.609 31.8962V42.7603C356.043 42.5879 355.26 42.4346 354.26 42.3005C353.26 42.1663 352.345 42.0993 351.515 42.0993C349.741 42.0993 348.156 42.4921 346.76 43.2777C345.383 44.0441 344.289 45.1171 343.477 46.4967C342.685 47.8762 342.289 49.4666 342.289 51.2677V76.2437H330.232Z" fill="white"/>
<path d="M374.269 17.3819V23.59C374.269 25.3528 373.929 27.1539 373.25 28.9933C372.589 30.8136 371.703 32.5381 370.589 34.1667C369.476 35.7762 368.259 37.1462 366.939 38.2767L361.618 35.0864C362.561 33.5727 363.392 31.8962 364.109 30.0568C364.844 28.2173 365.212 26.0809 365.212 23.6475V17.3819H374.269Z" fill="white"/>
<path d="M413.02 44.686L401.982 45.3758C401.794 44.4177 401.388 43.5555 400.765 42.7891C400.143 42.0035 399.322 41.3807 398.303 40.9209C397.303 40.4419 396.105 40.2024 394.709 40.2024C392.841 40.2024 391.266 40.6047 389.983 41.4095C388.7 42.1951 388.058 43.2489 388.058 44.571C388.058 45.6249 388.473 46.5158 389.303 47.2439C390.134 47.972 391.558 48.5564 393.577 48.9971L401.445 50.6066C405.671 51.488 408.822 52.9059 410.897 54.8603C412.972 56.8147 414.01 59.3823 414.01 62.5629C414.01 65.4562 413.171 67.995 411.491 70.1793C409.831 72.3637 407.548 74.069 404.643 75.2952C401.756 76.5024 398.426 77.1059 394.652 77.1059C388.898 77.1059 384.313 75.8892 380.898 73.4558C377.502 71.0032 375.511 67.6693 374.927 63.4539L386.785 62.8216C387.143 64.6036 388.011 65.964 389.388 66.9028C390.766 67.8226 392.53 68.2824 394.681 68.2824C396.794 68.2824 398.492 67.8705 399.775 67.0466C401.077 66.2035 401.737 65.1209 401.756 63.7988C401.737 62.6875 401.275 61.7774 400.369 61.0684C399.463 60.3403 398.067 59.7846 396.181 59.4014L388.653 57.8781C384.407 57.0159 381.247 55.5214 379.172 53.3945C377.115 51.2677 376.087 48.5564 376.087 45.2608C376.087 42.425 376.842 39.982 378.351 37.9318C379.879 35.8816 382.021 34.3009 384.775 33.1895C387.549 32.0782 390.794 31.5225 394.511 31.5225C400.001 31.5225 404.322 32.7009 407.473 35.0577C410.642 37.4145 412.491 40.6239 413.02 44.686Z" fill="white"/>
<path d="M491.413 37.9893H479.017C478.791 36.3606 478.329 34.914 477.63 33.6494C476.932 32.3656 476.036 31.2735 474.942 30.3729C473.848 29.4723 472.584 28.7826 471.15 28.3035C469.735 27.8245 468.197 27.585 466.537 27.585C463.537 27.585 460.924 28.3419 458.697 29.8556C456.471 31.3501 454.745 33.5344 453.518 36.4085C452.292 39.2635 451.679 42.7316 451.679 46.8128C451.679 51.009 452.292 54.5346 453.518 57.3895C454.763 60.2445 456.499 62.4001 458.725 63.8563C460.952 65.3125 463.527 66.0406 466.452 66.0406C468.093 66.0406 469.612 65.8203 471.008 65.3796C472.423 64.9389 473.678 64.297 474.772 63.4539C475.866 62.5917 476.772 61.5474 477.489 60.3211C478.225 59.0948 478.734 57.6961 479.017 56.1249L491.413 56.1824C491.092 58.8841 490.29 61.4899 489.007 64C487.743 66.4909 486.036 68.7231 483.885 70.6967C481.753 72.6511 479.206 74.2031 476.244 75.3527C473.3 76.4832 469.97 77.0485 466.254 77.0485C461.084 77.0485 456.461 75.8605 452.386 73.4846C448.33 71.1086 445.122 67.6693 442.764 63.1665C440.424 58.6637 439.254 53.2125 439.254 46.8128C439.254 40.394 440.443 34.9332 442.82 30.4304C445.198 25.9276 448.424 22.4978 452.499 20.1411C456.575 17.7651 461.159 16.5772 466.254 16.5772C469.612 16.5772 472.725 17.0562 475.593 18.0142C478.48 18.9723 481.036 20.371 483.262 22.2104C485.489 24.0307 487.3 26.2629 488.696 28.9071C490.111 31.5513 491.017 34.5787 491.413 37.9893Z" fill="white"/>
<path d="M519.615 77.1059C515.219 77.1059 511.417 76.1575 508.21 74.2606C505.021 72.3445 502.559 69.6812 500.823 66.2705C499.087 62.8408 498.219 58.8649 498.219 54.343C498.219 49.7827 499.087 45.7973 500.823 42.3867C502.559 38.9569 505.021 36.2936 508.21 34.3967C511.417 32.4806 515.219 31.5225 519.615 31.5225C524.011 31.5225 527.803 32.4806 530.992 34.3967C534.199 36.2936 536.671 38.9569 538.407 42.3867C540.142 45.7973 541.01 49.7827 541.01 54.343C541.01 58.8649 540.142 62.8408 538.407 66.2705C536.671 69.6812 534.199 72.3445 530.992 74.2606C527.803 76.1575 524.011 77.1059 519.615 77.1059ZM519.671 67.6214C521.671 67.6214 523.341 67.0466 524.681 65.8969C526.02 64.7281 527.03 63.1378 527.709 61.1259C528.407 59.114 528.756 56.8243 528.756 54.2568C528.756 51.6892 528.407 49.3995 527.709 47.3876C527.03 45.3758 526.02 43.7854 524.681 42.6166C523.341 41.4478 521.671 40.8634 519.671 40.8634C517.653 40.8634 515.955 41.4478 514.577 42.6166C513.219 43.7854 512.191 45.3758 511.493 47.3876C510.813 49.3995 510.474 51.6892 510.474 54.2568C510.474 56.8243 510.813 59.114 511.493 61.1259C512.191 63.1378 513.219 64.7281 514.577 65.8969C515.955 67.0466 517.653 67.6214 519.671 67.6214Z" fill="white"/>
<path d="M548.85 76.2437V32.0974H560.538V39.8H560.991C561.783 37.06 563.113 34.9906 564.981 33.5919C566.849 32.174 569 31.4651 571.434 31.4651C572.038 31.4651 572.688 31.5034 573.387 31.58C574.085 31.6567 574.698 31.7621 575.226 31.8962V42.7603C574.66 42.5879 573.877 42.4346 572.877 42.3005C571.877 42.1663 570.962 42.0993 570.132 42.0993C568.358 42.0993 566.774 42.4921 565.377 43.2777C564 44.0441 562.906 45.1171 562.094 46.4967C561.302 47.8762 560.906 49.4666 560.906 51.2677V76.2437H548.85Z" fill="white"/>
<path d="M581.459 92.7986V32.0974H593.346V39.5126H593.883C594.412 38.3246 595.176 37.1175 596.176 35.8912C597.195 34.6457 598.515 33.6111 600.138 32.7872C601.779 31.9441 603.817 31.5225 606.251 31.5225C609.421 31.5225 612.345 32.3656 615.024 34.0518C617.703 35.7187 619.845 38.2384 621.449 41.6107C623.052 44.9638 623.854 49.1696 623.854 54.228C623.854 59.1523 623.071 63.3102 621.505 66.7017C619.958 70.074 617.845 72.6319 615.166 74.3755C612.505 76.1 609.524 76.9622 606.223 76.9622C603.883 76.9622 601.893 76.5694 600.251 75.7839C598.629 74.9983 597.298 74.0115 596.261 72.8235C595.223 71.6164 594.431 70.3997 593.883 69.1734H593.516V92.7986H581.459ZM593.261 54.1705C593.261 56.7956 593.619 59.0853 594.336 61.0397C595.053 62.9941 596.091 64.5173 597.449 65.6095C598.808 66.6825 600.459 67.219 602.402 67.219C604.364 67.219 606.025 66.6729 607.383 65.5808C608.741 64.4694 609.77 62.9366 610.468 60.9822C611.185 59.0086 611.543 56.7381 611.543 54.1705C611.543 51.6222 611.194 49.3804 610.496 47.4451C609.798 45.5099 608.77 43.9962 607.411 42.904C606.053 41.8119 604.383 41.2658 602.402 41.2658C600.44 41.2658 598.78 41.7927 597.421 42.8465C596.082 43.9004 595.053 45.3949 594.336 47.3302C593.619 49.2654 593.261 51.5455 593.261 54.1705Z" fill="white"/>
<path d="M651.532 77.1059C647.136 77.1059 643.335 76.1575 640.127 74.2606C636.939 72.3445 634.476 69.6812 632.741 66.2705C631.005 62.8408 630.137 58.8649 630.137 54.343C630.137 49.7827 631.005 45.7973 632.741 42.3867C634.476 38.9569 636.939 36.2936 640.127 34.3967C643.335 32.4806 647.136 31.5225 651.532 31.5225C655.928 31.5225 659.721 32.4806 662.909 34.3967C666.117 36.2936 668.588 38.9569 670.324 42.3867C672.06 45.7973 672.928 49.7827 672.928 54.343C672.928 58.8649 672.06 62.8408 670.324 66.2705C668.588 69.6812 666.117 72.3445 662.909 74.2606C659.721 76.1575 655.928 77.1059 651.532 77.1059ZM651.589 67.6214C653.589 67.6214 655.259 67.0466 656.598 65.8969C657.938 64.7281 658.947 63.1378 659.626 61.1259C660.324 59.114 660.674 56.8243 660.674 54.2568C660.674 51.6892 660.324 49.3995 659.626 47.3876C658.947 45.3758 657.938 43.7854 656.598 42.6166C655.259 41.4478 653.589 40.8634 651.589 40.8634C649.57 40.8634 647.872 41.4478 646.495 42.6166C645.136 43.7854 644.108 45.3758 643.41 47.3876C642.731 49.3995 642.391 51.6892 642.391 54.2568C642.391 56.8243 642.731 59.114 643.41 61.1259C644.108 63.1378 645.136 64.7281 646.495 65.8969C647.872 67.0466 649.57 67.6214 651.589 67.6214Z" fill="white"/>
<path d="M680.767 76.2437V32.0974H692.455V39.8H692.908C693.701 37.06 695.031 34.9906 696.899 33.5919C698.767 32.174 700.917 31.4651 703.351 31.4651C703.955 31.4651 704.606 31.5034 705.304 31.58C706.002 31.6567 706.615 31.7621 707.144 31.8962V42.7603C706.578 42.5879 705.795 42.4346 704.795 42.3005C703.795 42.1663 702.88 42.0993 702.049 42.0993C700.276 42.0993 698.691 42.4921 697.295 43.2777C695.918 44.0441 694.823 45.1171 694.012 46.4967C693.22 47.8762 692.823 49.4666 692.823 51.2677V76.2437H680.767Z" fill="white"/>
<path d="M724.527 77.0772C721.754 77.0772 719.282 76.5886 717.113 75.6114C714.943 74.615 713.226 73.1492 711.962 71.214C710.717 69.2596 710.094 66.8262 710.094 63.9138C710.094 61.4612 710.537 59.4014 711.424 57.7344C712.311 56.0675 713.518 54.7262 715.047 53.7107C716.575 52.6952 718.311 51.9287 720.254 51.4114C722.216 50.8941 724.273 50.53 726.424 50.3192C728.952 50.051 730.989 49.8019 732.537 49.572C734.084 49.3229 735.206 48.9588 735.904 48.4798C736.602 48.0008 736.952 47.2918 736.952 46.353V46.1805C736.952 44.3602 736.386 42.9519 735.253 41.9556C734.14 40.9592 732.555 40.461 730.499 40.461C728.329 40.461 726.603 40.9496 725.32 41.9268C724.037 42.8849 723.188 44.092 722.773 45.5482L711.622 44.6285C712.188 41.946 713.301 39.6275 714.962 37.6731C716.622 35.6996 718.763 34.1859 721.386 33.132C724.027 32.059 727.084 31.5225 730.555 31.5225C732.97 31.5225 735.282 31.81 737.489 32.3848C739.716 32.9596 741.687 33.8506 743.404 35.0577C745.14 36.2648 746.508 37.8168 747.508 39.7138C748.508 41.5915 749.008 43.8429 749.008 46.4679V76.2437H737.574V70.1218H737.234C736.536 71.5014 735.603 72.7181 734.433 73.772C733.263 74.8067 731.857 75.621 730.216 76.215C728.574 76.7898 726.678 77.0772 724.527 77.0772ZM727.98 68.6273C729.754 68.6273 731.32 68.2728 732.678 67.5639C734.037 66.8358 735.103 65.8586 735.876 64.6323C736.65 63.406 737.036 62.0169 737.036 60.4648V55.78C736.659 56.0291 736.14 56.2591 735.48 56.4698C734.838 56.6614 734.112 56.8435 733.301 57.0159C732.489 57.1692 731.678 57.3129 730.867 57.447C730.056 57.562 729.32 57.6674 728.659 57.7632C727.244 57.9739 726.009 58.3093 724.952 58.7691C723.895 59.229 723.075 59.8517 722.49 60.6373C721.905 61.4037 721.612 62.3618 721.612 63.5114C721.612 65.1784 722.207 66.4526 723.395 67.334C724.603 68.1962 726.131 68.6273 727.98 68.6273Z" fill="white"/>
<path d="M781.483 32.0974V41.2945H755.305V32.0974H781.483ZM761.248 21.5206H773.304V62.6779C773.304 63.8084 773.474 64.6898 773.813 65.3221C774.153 65.9352 774.625 66.3664 775.228 66.6154C775.851 66.8645 776.568 66.9891 777.379 66.9891C777.945 66.9891 778.511 66.9412 779.077 66.8454C779.643 66.7304 780.077 66.6442 780.379 66.5867L782.275 75.6976C781.672 75.8892 780.823 76.1096 779.728 76.3587C778.634 76.6269 777.304 76.7898 775.738 76.8473C772.832 76.9622 770.285 76.5694 768.097 75.6689C765.927 74.7683 764.238 73.3696 763.031 71.4727C761.823 69.5758 761.229 67.1807 761.248 64.2874V21.5206Z" fill="white"/>
<path d="M789.336 76.2437V32.0974H801.393V76.2437H789.336ZM795.393 26.4066C793.6 26.4066 792.063 25.8031 790.78 24.5959C789.516 23.3696 788.884 21.9039 788.884 20.1985C788.884 18.5124 789.516 17.0658 790.78 15.8586C792.063 14.6324 793.6 14.0192 795.393 14.0192C797.185 14.0192 798.713 14.6324 799.978 15.8586C801.261 17.0658 801.902 18.5124 801.902 20.1985C801.902 21.9039 801.261 23.3696 799.978 24.5959C798.713 25.8031 797.185 26.4066 795.393 26.4066Z" fill="white"/>
<path d="M830.691 77.1059C826.295 77.1059 822.493 76.1575 819.286 74.2606C816.097 72.3445 813.635 69.6812 811.899 66.2705C810.164 62.8408 809.296 58.8649 809.296 54.343C809.296 49.7827 810.164 45.7973 811.899 42.3867C813.635 38.9569 816.097 36.2936 819.286 34.3967C822.493 32.4806 826.295 31.5225 830.691 31.5225C835.087 31.5225 838.879 32.4806 842.068 34.3967C845.275 36.2936 847.747 38.9569 849.483 42.3867C851.219 45.7973 852.087 49.7827 852.087 54.343C852.087 58.8649 851.219 62.8408 849.483 66.2705C847.747 69.6812 845.275 72.3445 842.068 74.2606C838.879 76.1575 835.087 77.1059 830.691 77.1059ZM830.748 67.6214C832.748 67.6214 834.417 67.0466 835.757 65.8969C837.097 64.7281 838.106 63.1378 838.785 61.1259C839.483 59.114 839.832 56.8243 839.832 54.2568C839.832 51.6892 839.483 49.3995 838.785 47.3876C838.106 45.3758 837.097 43.7854 835.757 42.6166C834.417 41.4478 832.748 40.8634 830.748 40.8634C828.729 40.8634 827.031 41.4478 825.654 42.6166C824.295 43.7854 823.267 45.3758 822.569 47.3876C821.89 49.3995 821.55 51.6892 821.55 54.2568C821.55 56.8243 821.89 59.114 822.569 61.1259C823.267 63.1378 824.295 64.7281 825.654 65.8969C827.031 67.0466 828.729 67.6214 830.748 67.6214Z" fill="white"/>
<path d="M871.982 50.7216V76.2437H859.926V32.0974H871.416V39.8862H871.926C872.888 37.3187 874.501 35.2876 876.765 33.7931C879.029 32.2794 881.774 31.5225 885 31.5225C888.019 31.5225 890.651 32.1932 892.896 33.5344C895.142 34.8757 896.887 36.7917 898.132 39.2826C899.377 41.7544 900 44.7051 900 48.1349V76.2437H887.944V50.3192C887.963 47.6176 887.283 45.5099 885.906 43.9962C884.529 42.4633 882.633 41.6969 880.218 41.6969C878.595 41.6969 877.161 42.0514 875.916 42.7603C874.69 43.4693 873.727 44.5039 873.029 45.8644C872.35 47.2056 872.001 48.8247 871.982 50.7216Z" fill="white"/>
</svg>
