<svg width="1245" height="113" viewBox="0 0 1245 113" fill="none" xmlns="http://www.w3.org/2000/svg">
<path d="M62.0736 10.3672L114.147 102.339H10L62.0736 10.3672Z" fill="white"/>
<path d="M185.809 27.3819V86.2437H175.224L150.008 49.1964H149.583V86.2437H137.329V27.3819H148.084L173.102 64.4005H173.611V27.3819H185.809Z" fill="white"/>
<path d="M208.103 87.0772C205.329 87.0772 202.858 86.5886 200.688 85.6114C198.518 84.615 196.801 83.1492 195.537 81.214C194.292 79.2596 193.669 76.8262 193.669 73.9138C193.669 71.4612 194.113 69.4014 194.999 67.7344C195.886 66.0675 197.094 64.7262 198.622 63.7107C200.15 62.6952 201.886 61.9287 203.829 61.4114C205.791 60.8941 207.848 60.53 209.999 60.3192C212.527 60.051 214.565 59.8019 216.112 59.572C217.659 59.3229 218.782 58.9588 219.48 58.4798C220.178 58.0008 220.527 57.2918 220.527 56.353V56.1805C220.527 54.3602 219.961 52.9519 218.829 51.9556C217.716 50.9592 216.131 50.461 214.074 50.461C211.904 50.461 210.178 50.9496 208.895 51.9268C207.612 52.8849 206.763 54.092 206.348 55.5482L195.197 54.6285C195.763 51.946 196.877 49.6275 198.537 47.6731C200.197 45.6996 202.339 44.1859 204.961 43.132C207.603 42.059 210.659 41.5225 214.131 41.5225C216.546 41.5225 218.857 41.81 221.064 42.3848C223.291 42.9596 225.262 43.8506 226.979 45.0577C228.715 46.2648 230.083 47.8168 231.083 49.7138C232.083 51.5915 232.583 53.8429 232.583 56.4679V86.2437H221.149V80.1218H220.81C220.112 81.5014 219.178 82.7181 218.008 83.772C216.838 84.8067 215.433 85.621 213.791 86.215C212.15 86.7898 210.254 87.0772 208.103 87.0772ZM211.555 78.6273C213.329 78.6273 214.895 78.2728 216.253 77.5639C217.612 76.8358 218.678 75.8586 219.451 74.6323C220.225 73.406 220.612 72.0169 220.612 70.4648V65.78C220.234 66.0291 219.715 66.2591 219.055 66.4698C218.414 66.6614 217.687 66.8435 216.876 67.0159C216.065 67.1692 215.253 67.3129 214.442 67.447C213.631 67.562 212.895 67.6674 212.235 67.7632C210.82 67.9739 209.584 68.3093 208.527 68.7691C207.471 69.229 206.65 69.8517 206.065 70.6373C205.48 71.4037 205.188 72.3618 205.188 73.5114C205.188 75.1784 205.782 76.4526 206.971 77.334C208.178 78.1962 209.706 78.6273 211.555 78.6273Z" fill="white"/>
<path d="M257.955 86.9622C254.653 86.9622 251.662 86.1 248.983 84.3755C246.323 82.6319 244.21 80.074 242.644 76.7017C241.097 73.3102 240.323 69.1523 240.323 64.228C240.323 59.1696 241.125 54.9638 242.729 51.6107C244.333 48.2384 246.465 45.7188 249.125 44.0518C251.804 42.3656 254.738 41.5225 257.926 41.5225C260.36 41.5225 262.388 41.9441 264.011 42.7872C265.653 43.6111 266.973 44.6457 267.973 45.8912C268.992 47.1175 269.766 48.3246 270.294 49.5126H270.662V27.3819H282.69V86.2437H270.803V79.1734H270.294C269.728 80.3997 268.926 81.6164 267.888 82.8235C266.869 84.0115 265.539 84.9983 263.898 85.7839C262.275 86.5694 260.294 86.9622 257.955 86.9622ZM261.775 77.219C263.719 77.219 265.36 76.6825 266.7 75.6095C268.058 74.5173 269.096 72.9941 269.813 71.0397C270.549 69.0853 270.916 66.7956 270.916 64.1705C270.916 61.5455 270.558 59.2654 269.841 57.3302C269.124 55.3949 268.086 53.9004 266.728 52.8465C265.369 51.7927 263.719 51.2658 261.775 51.2658C259.794 51.2658 258.124 51.8119 256.766 52.904C255.408 53.9962 254.379 55.5099 253.681 57.4451C252.983 59.3804 252.634 61.6222 252.634 64.1705C252.634 66.7381 252.983 69.0086 253.681 70.9822C254.398 72.9366 255.426 74.4694 256.766 75.5808C258.124 76.6729 259.794 77.219 261.775 77.219Z" fill="white"/>
<path d="M312.413 87.1059C307.941 87.1059 304.092 86.1862 300.866 84.3468C297.658 82.4882 295.187 79.8632 293.451 76.4717C291.715 73.0611 290.847 69.0278 290.847 64.3717C290.847 59.8306 291.715 55.8452 293.451 52.4154C295.187 48.9857 297.63 46.3127 300.781 44.3967C303.951 42.4806 307.668 41.5225 311.932 41.5225C314.799 41.5225 317.469 41.992 319.941 42.9309C322.431 43.8506 324.601 45.2397 326.45 47.0983C328.318 48.9569 329.771 51.2945 330.808 54.1112C331.846 56.9086 332.365 60.1851 332.365 63.9406V67.3033H295.659V59.7157H321.016C321.016 57.9529 320.639 56.3913 319.884 55.0309C319.129 53.6705 318.082 52.607 316.743 51.8406C315.422 51.055 313.884 50.6622 312.13 50.6622C310.299 50.6622 308.677 51.0933 307.262 51.9556C305.866 52.7986 304.771 53.9387 303.979 55.3758C303.187 56.7937 302.781 58.3744 302.762 60.118V67.3321C302.762 69.5164 303.158 71.4037 303.951 72.9941C304.762 74.5844 305.903 75.8107 307.375 76.6729C308.847 77.5352 310.592 77.9663 312.611 77.9663C313.95 77.9663 315.177 77.7747 316.29 77.3914C317.403 77.0082 318.356 76.4334 319.148 75.667C319.941 74.9006 320.544 73.9617 320.96 72.8504L332.11 73.5976C331.544 76.3184 330.384 78.6944 328.629 80.7254C326.893 82.7373 324.648 84.3085 321.893 85.439C319.158 86.5503 315.997 87.1059 312.413 87.1059Z" fill="white"/>
<path d="M340.232 86.2437V42.0974H351.921V49.8H352.374C353.166 47.06 354.496 44.9906 356.364 43.5919C358.232 42.174 360.383 41.4651 362.817 41.4651C363.42 41.4651 364.071 41.5034 364.769 41.58C365.467 41.6567 366.081 41.7621 366.609 41.8962V52.7603C366.043 52.5879 365.26 52.4346 364.26 52.3005C363.26 52.1663 362.345 52.0993 361.515 52.0993C359.741 52.0993 358.156 52.4921 356.76 53.2777C355.383 54.0441 354.289 55.1171 353.477 56.4967C352.685 57.8762 352.289 59.4666 352.289 61.2677V86.2437H340.232Z" fill="white"/>
<path d="M384.269 27.3819V33.59C384.269 35.3528 383.929 37.1539 383.25 38.9933C382.589 40.8136 381.703 42.5381 380.589 44.1667C379.476 45.7762 378.259 47.1462 376.939 48.2767L371.618 45.0864C372.561 43.5727 373.392 41.8962 374.109 40.0568C374.844 38.2173 375.212 36.0809 375.212 33.6475V27.3819H384.269Z" fill="white"/>
<path d="M423.02 54.686L411.982 55.3758C411.794 54.4177 411.388 53.5555 410.765 52.7891C410.143 52.0035 409.322 51.3807 408.303 50.9209C407.303 50.4419 406.105 50.2024 404.709 50.2024C402.841 50.2024 401.266 50.6047 399.983 51.4095C398.7 52.1951 398.058 53.2489 398.058 54.571C398.058 55.6249 398.473 56.5158 399.303 57.2439C400.134 57.972 401.558 58.5564 403.577 58.9971L411.445 60.6066C415.671 61.488 418.822 62.9059 420.897 64.8603C422.972 66.8147 424.01 69.3823 424.01 72.5629C424.01 75.4562 423.171 77.995 421.491 80.1793C419.831 82.3637 417.548 84.069 414.643 85.2952C411.756 86.5024 408.426 87.1059 404.652 87.1059C398.898 87.1059 394.313 85.8892 390.898 83.4558C387.502 81.0032 385.511 77.6693 384.927 73.4539L396.785 72.8216C397.143 74.6036 398.011 75.964 399.388 76.9028C400.766 77.8226 402.53 78.2824 404.681 78.2824C406.794 78.2824 408.492 77.8705 409.775 77.0466C411.077 76.2035 411.737 75.1209 411.756 73.7988C411.737 72.6875 411.275 71.7774 410.369 71.0684C409.463 70.3403 408.067 69.7846 406.181 69.4014L398.653 67.8781C394.407 67.0159 391.247 65.5214 389.172 63.3945C387.115 61.2677 386.087 58.5564 386.087 55.2608C386.087 52.425 386.842 49.982 388.351 47.9318C389.879 45.8816 392.021 44.3009 394.775 43.1895C397.549 42.0782 400.794 41.5225 404.511 41.5225C410.001 41.5225 414.322 42.7009 417.473 45.0577C420.642 47.4145 422.491 50.6239 423.02 54.686Z" fill="white"/>
<path d="M501.413 47.9893H489.017C488.791 46.3606 488.329 44.914 487.63 43.6494C486.932 42.3656 486.036 41.2735 484.942 40.3729C483.848 39.4723 482.583 38.7826 481.15 38.3035C479.735 37.8245 478.197 37.585 476.537 37.585C473.537 37.585 470.924 38.3419 468.697 39.8556C466.471 41.3501 464.745 43.5344 463.518 46.4085C462.292 49.2635 461.679 52.7316 461.679 56.8128C461.679 61.009 462.292 64.5346 463.518 67.3895C464.763 70.2445 466.499 72.4001 468.725 73.8563C470.952 75.3125 473.527 76.0406 476.452 76.0406C478.093 76.0406 479.612 75.8203 481.008 75.3796C482.423 74.9389 483.678 74.297 484.772 73.4539C485.866 72.5917 486.772 71.5474 487.489 70.3211C488.225 69.0948 488.734 67.6961 489.017 66.1249L501.413 66.1824C501.092 68.8841 500.29 71.4899 499.007 74C497.743 76.4909 496.036 78.7231 493.885 80.6967C491.753 82.6511 489.206 84.2031 486.244 85.3527C483.3 86.4832 479.97 87.0485 476.254 87.0485C471.084 87.0485 466.461 85.8605 462.386 83.4846C458.33 81.1086 455.122 77.6693 452.764 73.1665C450.424 68.6637 449.254 63.2125 449.254 56.8128C449.254 50.394 450.443 44.9332 452.82 40.4304C455.198 35.9276 458.424 32.4978 462.499 30.1411C466.575 27.7651 471.159 26.5772 476.254 26.5772C479.612 26.5772 482.725 27.0562 485.593 28.0142C488.48 28.9723 491.036 30.371 493.262 32.2104C495.489 34.0307 497.3 36.2629 498.696 38.9071C500.111 41.5513 501.017 44.5787 501.413 47.9893Z" fill="white"/>
<path d="M529.615 87.1059C525.219 87.1059 521.417 86.1575 518.21 84.2606C515.021 82.3445 512.559 79.6812 510.823 76.2705C509.087 72.8408 508.219 68.8649 508.219 64.343C508.219 59.7827 509.087 55.7973 510.823 52.3867C512.559 48.9569 515.021 46.2936 518.21 44.3967C521.417 42.4806 525.219 41.5225 529.615 41.5225C534.011 41.5225 537.803 42.4806 540.992 44.3967C544.199 46.2936 546.671 48.9569 548.407 52.3867C550.142 55.7973 551.01 59.7827 551.01 64.343C551.01 68.8649 550.142 72.8408 548.407 76.2705C546.671 79.6812 544.199 82.3445 540.992 84.2606C537.803 86.1575 534.011 87.1059 529.615 87.1059ZM529.671 77.6214C531.671 77.6214 533.341 77.0466 534.681 75.8969C536.02 74.7281 537.03 73.1378 537.709 71.1259C538.407 69.114 538.756 66.8243 538.756 64.2568C538.756 61.6892 538.407 59.3995 537.709 57.3876C537.03 55.3758 536.02 53.7854 534.681 52.6166C533.341 51.4478 531.671 50.8634 529.671 50.8634C527.653 50.8634 525.955 51.4478 524.577 52.6166C523.219 53.7854 522.191 55.3758 521.493 57.3876C520.813 59.3995 520.474 61.6892 520.474 64.2568C520.474 66.8243 520.813 69.114 521.493 71.1259C522.191 73.1378 523.219 74.7281 524.577 75.8969C525.955 77.0466 527.653 77.6214 529.671 77.6214Z" fill="white"/>
<path d="M558.85 86.2437V42.0974H570.538V49.8H570.991C571.783 47.06 573.113 44.9906 574.981 43.5919C576.849 42.174 579 41.4651 581.434 41.4651C582.038 41.4651 582.688 41.5034 583.387 41.58C584.085 41.6567 584.698 41.7621 585.226 41.8962V52.7603C584.66 52.5879 583.877 52.4346 582.877 52.3005C581.877 52.1663 580.962 52.0993 580.132 52.0993C578.358 52.0993 576.774 52.4921 575.377 53.2777C574 54.0441 572.906 55.1171 572.094 56.4967C571.302 57.8762 570.906 59.4666 570.906 61.2677V86.2437H558.85Z" fill="white"/>
<path d="M591.459 102.799V42.0974H603.346V49.5126H603.883C604.412 48.3246 605.176 47.1175 606.176 45.8912C607.195 44.6457 608.515 43.6111 610.138 42.7872C611.779 41.9441 613.817 41.5225 616.251 41.5225C619.421 41.5225 622.345 42.3656 625.024 44.0518C627.703 45.7188 629.845 48.2384 631.449 51.6107C633.052 54.9638 633.854 59.1696 633.854 64.228C633.854 69.1523 633.071 73.3102 631.505 76.7017C629.958 80.074 627.845 82.6319 625.166 84.3755C622.505 86.1 619.524 86.9622 616.223 86.9622C613.883 86.9622 611.893 86.5694 610.251 85.7839C608.629 84.9983 607.298 84.0115 606.261 82.8235C605.223 81.6164 604.431 80.3997 603.883 79.1734H603.516V102.799H591.459ZM603.261 64.1705C603.261 66.7956 603.619 69.0853 604.336 71.0397C605.053 72.9941 606.091 74.5173 607.449 75.6095C608.808 76.6825 610.459 77.219 612.402 77.219C614.364 77.219 616.025 76.6729 617.383 75.5808C618.741 74.4694 619.77 72.9366 620.468 70.9822C621.185 69.0086 621.543 66.7381 621.543 64.1705C621.543 61.6222 621.194 59.3804 620.496 57.4451C619.798 55.5099 618.77 53.9962 617.411 52.904C616.053 51.8119 614.383 51.2658 612.402 51.2658C610.44 51.2658 608.78 51.7927 607.421 52.8465C606.081 53.9004 605.053 55.3949 604.336 57.3302C603.619 59.2654 603.261 61.5455 603.261 64.1705Z" fill="white"/>
<path d="M661.532 87.1059C657.136 87.1059 653.335 86.1575 650.127 84.2606C646.939 82.3445 644.476 79.6812 642.741 76.2705C641.005 72.8408 640.137 68.8649 640.137 64.343C640.137 59.7827 641.005 55.7973 642.741 52.3867C644.476 48.9569 646.939 46.2936 650.127 44.3967C653.335 42.4806 657.136 41.5225 661.532 41.5225C665.928 41.5225 669.721 42.4806 672.909 44.3967C676.117 46.2936 678.588 48.9569 680.324 52.3867C682.06 55.7973 682.928 59.7827 682.928 64.343C682.928 68.8649 682.06 72.8408 680.324 76.2705C678.588 79.6812 676.117 82.3445 672.909 84.2606C669.721 86.1575 665.928 87.1059 661.532 87.1059ZM661.589 77.6214C663.589 77.6214 665.259 77.0466 666.598 75.8969C667.938 74.7281 668.947 73.1378 669.626 71.1259C670.324 69.114 670.674 66.8243 670.674 64.2568C670.674 61.6892 670.324 59.3995 669.626 57.3876C668.947 55.3758 667.938 53.7854 666.598 52.6166C665.259 51.4478 663.589 50.8634 661.589 50.8634C659.57 50.8634 657.872 51.4478 656.495 52.6166C655.136 53.7854 654.108 55.3758 653.41 57.3876C652.731 59.3995 652.391 61.6892 652.391 64.2568C652.391 66.8243 652.731 69.114 653.41 71.1259C654.108 73.1378 655.136 74.7281 656.495 75.8969C657.872 77.0466 659.57 77.6214 661.589 77.6214Z" fill="white"/>
<path d="M690.767 86.2437V42.0974H702.455V49.8H702.908C703.701 47.06 705.031 44.9906 706.899 43.5919C708.767 42.174 710.917 41.4651 713.351 41.4651C713.955 41.4651 714.606 41.5034 715.304 41.58C716.002 41.6567 716.615 41.7621 717.144 41.8962V52.7603C716.578 52.5879 715.795 52.4346 714.795 52.3005C713.795 52.1663 712.88 52.0993 712.049 52.0993C710.276 52.0993 708.691 52.4921 707.295 53.2777C705.918 54.0441 704.823 55.1171 704.012 56.4967C703.22 57.8762 702.823 59.4666 702.823 61.2677V86.2437H690.767Z" fill="white"/>
<path d="M734.527 87.0772C731.754 87.0772 729.282 86.5886 727.113 85.6114C724.943 84.615 723.226 83.1492 721.962 81.214C720.717 79.2596 720.094 76.8262 720.094 73.9138C720.094 71.4612 720.537 69.4014 721.424 67.7344C722.311 66.0675 723.518 64.7262 725.047 63.7107C726.575 62.6952 728.311 61.9287 730.254 61.4114C732.216 60.8941 734.273 60.53 736.424 60.3192C738.952 60.051 740.989 59.8019 742.537 59.572C744.084 59.3229 745.206 58.9588 745.904 58.4798C746.602 58.0008 746.952 57.2918 746.952 56.353V56.1805C746.952 54.3602 746.385 52.9519 745.253 51.9556C744.14 50.9592 742.555 50.461 740.499 50.461C738.329 50.461 736.603 50.9496 735.32 51.9268C734.037 52.8849 733.188 54.092 732.773 55.5482L721.622 54.6285C722.188 51.946 723.301 49.6275 724.962 47.6731C726.622 45.6996 728.763 44.1859 731.386 43.132C734.027 42.059 737.084 41.5225 740.555 41.5225C742.97 41.5225 745.282 41.81 747.489 42.3848C749.716 42.9596 751.687 43.8506 753.404 45.0577C755.14 46.2648 756.508 47.8168 757.508 49.7138C758.508 51.5915 759.008 53.8429 759.008 56.4679V86.2437H747.574V80.1218H747.234C746.536 81.5014 745.603 82.7181 744.433 83.772C743.263 84.8067 741.857 85.621 740.216 86.215C738.574 86.7898 736.678 87.0772 734.527 87.0772ZM737.98 78.6273C739.754 78.6273 741.32 78.2728 742.678 77.5639C744.037 76.8358 745.103 75.8586 745.876 74.6323C746.65 73.406 747.036 72.0169 747.036 70.4648V65.78C746.659 66.0291 746.14 66.2591 745.48 66.4698C744.838 66.6614 744.112 66.8435 743.301 67.0159C742.489 67.1692 741.678 67.3129 740.867 67.447C740.056 67.562 739.32 67.6674 738.659 67.7632C737.244 67.9739 736.009 68.3093 734.952 68.7691C733.895 69.229 733.075 69.8517 732.49 70.6373C731.905 71.4037 731.612 72.3618 731.612 73.5114C731.612 75.1784 732.207 76.4526 733.395 77.334C734.603 78.1962 736.131 78.6273 737.98 78.6273Z" fill="white"/>
<path d="M791.483 42.0974V51.2945H765.305V42.0974H791.483ZM771.248 31.5206H783.304V72.6779C783.304 73.8084 783.474 74.6898 783.813 75.3221C784.153 75.9352 784.625 76.3663 785.228 76.6154C785.851 76.8645 786.568 76.9891 787.379 76.9891C787.945 76.9891 788.511 76.9412 789.077 76.8454C789.643 76.7304 790.077 76.6442 790.379 76.5867L792.275 85.6976C791.672 85.8892 790.823 86.1096 789.728 86.3587C788.634 86.6269 787.304 86.7898 785.738 86.8473C782.832 86.9622 780.285 86.5694 778.097 85.6689C775.927 84.7683 774.238 83.3696 773.031 81.4727C771.823 79.5758 771.229 77.1807 771.248 74.2874V31.5206Z" fill="white"/>
<path d="M799.336 86.2437V42.0974H811.393V86.2437H799.336ZM805.393 36.4066C803.6 36.4066 802.063 35.8031 800.78 34.5959C799.516 33.3696 798.884 31.9039 798.884 30.1985C798.884 28.5124 799.516 27.0658 800.78 25.8586C802.063 24.6324 803.6 24.0192 805.393 24.0192C807.185 24.0192 808.714 24.6324 809.978 25.8586C811.261 27.0658 811.902 28.5124 811.902 30.1985C811.902 31.9039 811.261 33.3696 809.978 34.5959C808.714 35.8031 807.185 36.4066 805.393 36.4066Z" fill="white"/>
<path d="M840.691 87.1059C836.295 87.1059 832.493 86.1575 829.286 84.2606C826.097 82.3445 823.635 79.6812 821.899 76.2705C820.164 72.8408 819.296 68.8649 819.296 64.343C819.296 59.7827 820.164 55.7973 821.899 52.3867C823.635 48.9569 826.097 46.2936 829.286 44.3967C832.493 42.4806 836.295 41.5225 840.691 41.5225C845.087 41.5225 848.88 42.4806 852.068 44.3967C855.276 46.2936 857.747 48.9569 859.483 52.3867C861.219 55.7973 862.087 59.7827 862.087 64.343C862.087 68.8649 861.219 72.8408 859.483 76.2705C857.747 79.6812 855.276 82.3445 852.068 84.2606C848.88 86.1575 845.087 87.1059 840.691 87.1059ZM840.748 77.6214C842.748 77.6214 844.417 77.0466 845.757 75.8969C847.097 74.7281 848.106 73.1378 848.785 71.1259C849.483 69.114 849.832 66.8243 849.832 64.2568C849.832 61.6892 849.483 59.3995 848.785 57.3876C848.106 55.3758 847.097 53.7854 845.757 52.6166C844.417 51.4478 842.748 50.8634 840.748 50.8634C838.729 50.8634 837.031 51.4478 835.654 52.6166C834.295 53.7854 833.267 55.3758 832.569 57.3876C831.89 59.3995 831.55 61.6892 831.55 64.2568C831.55 66.8243 831.89 69.114 832.569 71.1259C833.267 73.1378 834.295 74.7281 835.654 75.8969C837.031 77.0466 838.729 77.6214 840.748 77.6214Z" fill="white"/>
<path d="M881.982 60.7216V86.2437H869.926V42.0974H881.416V49.8862H881.926C882.888 47.3187 884.501 45.2876 886.765 43.7931C889.029 42.2794 891.774 41.5225 895 41.5225C898.019 41.5225 900.651 42.1932 902.896 43.5344C905.142 44.8757 906.887 46.7917 908.132 49.2826C909.377 51.7544 910 54.7051 910 58.1349V86.2437H897.944V60.3192C897.963 57.6176 897.283 55.5099 895.906 53.9962C894.529 52.4633 892.633 51.6969 890.218 51.6969C888.595 51.6969 887.161 52.0514 885.916 52.7603C884.69 53.4693 883.727 54.5039 883.029 55.8644C882.35 57.2056 882.001 58.8247 881.982 60.7216Z" fill="white"/>
<rect x="950" y="11.5829" width="4" height="90" fill="#EAEAEA"/>
<path d="M1031.23 35.8556V76.5829H1026.45L1004.26 44.6056H1003.86V76.5829H998.932V35.8556H1003.7L1025.98 67.9124H1026.38V35.8556H1031.23ZM1049.45 77.2988C1047.51 77.2988 1045.76 76.9342 1044.18 76.205C1042.6 75.4626 1041.35 74.3954 1040.42 73.0033C1039.49 71.598 1039.03 69.9011 1039.03 67.9124C1039.03 66.1624 1039.37 64.7439 1040.06 63.6567C1040.75 62.5564 1041.67 61.6946 1042.83 61.0715C1043.98 60.4484 1045.25 59.9844 1046.64 59.6795C1048.05 59.3613 1049.46 59.1094 1050.88 58.9238C1052.74 58.6852 1054.24 58.5062 1055.39 58.3869C1056.56 58.2543 1057.41 58.0355 1057.94 57.7306C1058.48 57.4257 1058.75 56.8954 1058.75 56.1397V55.9806C1058.75 54.0185 1058.22 52.4939 1057.14 51.4067C1056.08 50.3196 1054.47 49.7761 1052.31 49.7761C1050.07 49.7761 1048.31 50.2666 1047.04 51.2477C1045.77 52.2287 1044.87 53.2761 1044.36 54.3897L1039.9 52.7988C1040.7 50.9427 1041.76 49.4977 1043.08 48.4636C1044.42 47.4162 1045.88 46.6871 1047.46 46.2761C1049.05 45.8518 1050.61 45.6397 1052.15 45.6397C1053.13 45.6397 1054.26 45.759 1055.53 45.9977C1056.82 46.223 1058.06 46.6937 1059.25 47.4096C1060.46 48.1255 1061.46 49.206 1062.25 50.6511C1063.05 52.0961 1063.45 54.0317 1063.45 56.4579V76.5829H1058.75V72.4465H1058.52C1058.2 73.1094 1057.67 73.8187 1056.93 74.5744C1056.18 75.33 1055.2 75.973 1053.96 76.5033C1052.73 77.0336 1051.22 77.2988 1049.45 77.2988ZM1050.16 73.0829C1052.02 73.0829 1053.58 72.7183 1054.86 71.9891C1056.14 71.26 1057.11 70.3187 1057.76 69.1653C1058.42 68.0119 1058.75 66.7988 1058.75 65.5261V61.2306C1058.56 61.4692 1058.12 61.688 1057.44 61.8869C1056.78 62.0725 1056.01 62.2382 1055.14 62.384C1054.27 62.5166 1053.43 62.6359 1052.61 62.742C1051.8 62.8348 1051.15 62.9143 1050.64 62.9806C1049.42 63.1397 1048.28 63.3982 1047.22 63.7562C1046.17 64.1009 1045.33 64.6246 1044.68 65.3272C1044.04 66.0166 1043.72 66.9579 1043.72 68.1511C1043.72 69.7817 1044.32 71.0147 1045.53 71.8499C1046.75 72.6719 1048.29 73.0829 1050.16 73.0829ZM1083.55 77.2192C1081 77.2192 1078.76 76.5763 1076.81 75.2903C1074.86 73.991 1073.33 72.1615 1072.23 69.8016C1071.13 67.4285 1070.58 64.6246 1070.58 61.3897C1070.58 58.1814 1071.13 55.3973 1072.23 53.0374C1073.33 50.6776 1074.86 48.8547 1076.83 47.5687C1078.79 46.2827 1081.06 45.6397 1083.63 45.6397C1085.62 45.6397 1087.19 45.9711 1088.34 46.634C1089.51 47.2836 1090.4 48.0261 1091.01 48.8613C1091.63 49.6833 1092.11 50.3594 1092.46 50.8897H1092.86V35.8556H1097.55V76.5829H1093.01V71.8897H1092.46C1092.11 72.4465 1091.62 73.1492 1090.99 73.9977C1090.35 74.8329 1089.44 75.5819 1088.26 76.2448C1087.08 76.8944 1085.51 77.2192 1083.55 77.2192ZM1084.18 73.0033C1086.07 73.0033 1087.66 72.5128 1088.96 71.5317C1090.26 70.5374 1091.24 69.1653 1091.92 67.4153C1092.6 65.652 1092.93 63.617 1092.93 61.3102C1092.93 59.0299 1092.6 57.0346 1091.94 55.3244C1091.28 53.6009 1090.3 52.2619 1089 51.3073C1087.7 50.3395 1086.09 49.8556 1084.18 49.8556C1082.2 49.8556 1080.54 50.366 1079.21 51.3869C1077.9 52.3944 1076.91 53.7666 1076.25 55.5033C1075.6 57.2268 1075.28 59.1624 1075.28 61.3102C1075.28 63.4844 1075.61 65.4598 1076.27 67.2363C1076.95 68.9996 1077.94 70.4049 1079.25 71.4522C1080.58 72.4863 1082.22 73.0033 1084.18 73.0033ZM1119.6 77.2192C1116.66 77.2192 1114.12 76.5696 1111.99 75.2704C1109.86 73.9579 1108.23 72.1283 1107.07 69.7817C1105.93 67.4219 1105.36 64.6776 1105.36 61.5488C1105.36 58.42 1105.93 55.6624 1107.07 53.2761C1108.23 50.8764 1109.83 49.0071 1111.89 47.6681C1113.95 46.3158 1116.37 45.6397 1119.12 45.6397C1120.72 45.6397 1122.29 45.9049 1123.84 46.4352C1125.39 46.9655 1126.8 47.8272 1128.07 49.0204C1129.35 50.2003 1130.36 51.7647 1131.12 53.7136C1131.87 55.6624 1132.25 58.0621 1132.25 60.9124V62.9011H1108.7V58.8442H1127.48C1127.48 57.1208 1127.13 55.5829 1126.44 54.2306C1125.77 52.8783 1124.8 51.8111 1123.54 51.0289C1122.29 50.2467 1120.82 49.8556 1119.12 49.8556C1117.26 49.8556 1115.64 50.3196 1114.27 51.2477C1112.92 52.1624 1111.88 53.3556 1111.15 54.8272C1110.42 56.2988 1110.06 57.8764 1110.06 59.5602V62.2647C1110.06 64.5715 1110.45 66.527 1111.25 68.1312C1112.06 69.7221 1113.18 70.9352 1114.61 71.7704C1116.04 72.5924 1117.71 73.0033 1119.6 73.0033C1120.84 73.0033 1121.95 72.831 1122.94 72.4863C1123.95 72.1283 1124.82 71.598 1125.55 70.8954C1126.28 70.1795 1126.84 69.2912 1127.24 68.2306L1131.77 69.5033C1131.3 71.0412 1130.49 72.3935 1129.37 73.5602C1128.24 74.7136 1126.85 75.6151 1125.19 76.2647C1123.53 76.9011 1121.67 77.2192 1119.6 77.2192ZM1139.39 76.5829V46.0374H1143.92V50.6511H1144.24C1144.8 49.1397 1145.81 47.9134 1147.26 46.9721C1148.72 46.0308 1150.37 45.5602 1152.2 45.5602C1152.54 45.5602 1152.97 45.5668 1153.49 45.58C1154.01 45.5933 1154.4 45.6132 1154.66 45.6397V50.4124C1154.5 50.3727 1154.14 50.313 1153.57 50.2335C1153.01 50.1407 1152.42 50.0942 1151.8 50.0942C1150.31 50.0942 1148.99 50.4058 1147.82 51.0289C1146.67 51.6388 1145.75 52.4872 1145.08 53.5744C1144.41 54.6482 1144.08 55.8746 1144.08 57.2533V76.5829H1139.39ZM1195.23 56.2192C1195.23 60.5147 1194.45 64.2268 1192.9 67.3556C1191.35 70.4844 1189.22 72.8973 1186.51 74.5942C1183.81 76.2912 1180.72 77.1397 1177.25 77.1397C1173.77 77.1397 1170.69 76.2912 1167.98 74.5942C1165.28 72.8973 1163.15 70.4844 1161.6 67.3556C1160.05 64.2268 1159.27 60.5147 1159.27 56.2192C1159.27 51.9238 1160.05 48.2117 1161.6 45.0829C1163.15 41.9541 1165.28 39.5412 1167.98 37.8442C1170.69 36.1473 1173.77 35.2988 1177.25 35.2988C1180.72 35.2988 1183.81 36.1473 1186.51 37.8442C1189.22 39.5412 1191.35 41.9541 1192.9 45.0829C1194.45 48.2117 1195.23 51.9238 1195.23 56.2192ZM1190.45 56.2192C1190.45 52.6927 1189.86 49.7164 1188.68 47.2903C1187.52 44.8641 1185.93 43.028 1183.93 41.7817C1181.94 40.5355 1179.71 39.9124 1177.25 39.9124C1174.78 39.9124 1172.55 40.5355 1170.55 41.7817C1168.56 43.028 1166.97 44.8641 1165.79 47.2903C1164.63 49.7164 1164.04 52.6927 1164.04 56.2192C1164.04 59.7458 1164.63 62.7221 1165.79 65.1482C1166.97 67.5744 1168.56 69.4105 1170.55 70.6567C1172.55 71.903 1174.78 72.5261 1177.25 72.5261C1179.71 72.5261 1181.94 71.903 1183.93 70.6567C1185.93 69.4105 1187.52 67.5744 1188.68 65.1482C1189.86 62.7221 1190.45 59.7458 1190.45 56.2192ZM1225.79 46.0374C1225.55 44.0223 1224.58 42.4579 1222.89 41.3442C1221.19 40.2306 1219.11 39.6738 1216.64 39.6738C1214.84 39.6738 1213.26 39.9655 1211.91 40.5488C1210.57 41.1321 1209.52 41.9342 1208.77 42.955C1208.03 43.9759 1207.65 45.1359 1207.65 46.4352C1207.65 47.5223 1207.91 48.4569 1208.43 49.2391C1208.96 50.0081 1209.64 50.6511 1210.46 51.1681C1211.28 51.6719 1212.14 52.0895 1213.04 52.421C1213.94 52.7391 1214.77 52.9977 1215.53 53.1965L1219.67 54.3102C1220.73 54.5886 1221.91 54.973 1223.21 55.4636C1224.52 55.9541 1225.77 56.6236 1226.96 57.4721C1228.17 58.3073 1229.16 59.3812 1229.95 60.6937C1230.73 62.0062 1231.12 63.617 1231.12 65.5261C1231.12 67.7268 1230.54 69.7155 1229.39 71.492C1228.25 73.2685 1226.58 74.6804 1224.38 75.7278C1222.19 76.7751 1219.53 77.2988 1216.4 77.2988C1213.49 77.2988 1210.96 76.8282 1208.83 75.8869C1206.71 74.9456 1205.04 73.6331 1203.82 71.9494C1202.61 70.2657 1201.93 68.3102 1201.77 66.0829H1206.86C1206.99 67.6208 1207.51 68.8935 1208.41 69.9011C1209.32 70.8954 1210.48 71.6378 1211.87 72.1283C1213.28 72.6056 1214.79 72.8442 1216.4 72.8442C1218.29 72.8442 1219.98 72.5393 1221.48 71.9295C1222.97 71.3064 1224.16 70.4446 1225.03 69.3442C1225.91 68.2306 1226.35 66.9314 1226.35 65.4465C1226.35 64.0942 1225.97 62.9939 1225.21 62.1454C1224.46 61.2969 1223.46 60.6075 1222.23 60.0772C1221 59.5469 1219.67 59.0829 1218.23 58.6852L1213.22 57.2533C1210.04 56.3386 1207.52 55.0327 1205.67 53.3357C1203.81 51.6388 1202.88 49.4181 1202.88 46.6738C1202.88 44.3935 1203.5 42.4049 1204.73 40.7079C1205.98 38.9977 1207.65 37.6719 1209.74 36.7306C1211.85 35.7761 1214.2 35.2988 1216.8 35.2988C1219.43 35.2988 1221.76 35.7694 1223.8 36.7107C1225.84 37.6388 1227.46 38.9115 1228.65 40.5289C1229.86 42.1463 1230.5 43.9825 1230.56 46.0374H1225.79Z" fill="#DDDDDD"/>
</svg>
