<svg width="922" height="75" viewBox="0 0 922 75" fill="none" xmlns="http://www.w3.org/2000/svg">
<path d="M16.812 52.5H22.428V37.992C22.428 37.212 22.376 35.808 22.168 33.728C22.896 34.56 23.624 35.236 24.404 35.912L44.112 52.5H48.376V25.668H42.76V39.76C42.76 40.592 42.864 42.152 43.02 44.388C42.084 43.296 41.044 42.36 39.952 41.476L21.076 25.668H16.812V52.5ZM56.9113 52.5H63.1513L66.2713 46.624H83.2753L86.4993 52.5H93.5193L78.1273 25.668H72.0953L56.9113 52.5ZM68.9233 41.788L74.9033 30.868L80.6753 41.788H68.9233ZM102.176 52.5H117.829C122.613 52.5 126.253 52.032 128.853 50.42C132.597 48.132 134.781 43.972 134.781 38.928C134.781 30.608 129.477 25.668 119.441 25.668H102.176V52.5ZM108.417 47.456V30.452H119.493C125.369 30.452 128.333 33.364 128.333 38.824C128.333 45.48 124.381 47.456 116.477 47.456H108.417ZM146.204 52.5H173.92V47.456H152.444V40.8H164.82V36.224H152.444V30.244H173.66V25.668H146.204V52.5ZM185.458 52.5H191.594V42.36H197.522L208.338 52.5H217.282L204.906 42.36H208.442C212.55 42.36 214.474 40.904 214.474 37.16V30.868C214.474 27.124 212.55 25.668 208.442 25.668H185.458V52.5ZM205.634 30.296C207.558 30.296 208.442 30.66 208.442 32.428V35.652C208.442 37.42 207.558 37.784 205.634 37.784H191.594V30.296H205.634ZM237.029 27.644L231.829 18.856H226.213L233.701 27.644H237.029ZM276.393 30.348V33.416L281.905 32.116V31.544C281.905 26.916 280.033 25.668 275.249 25.668H260.013C254.969 25.668 253.357 26.968 253.357 32.012V34.976C253.357 40.02 254.969 41.32 260.013 41.32H276.757V47.456H257.777V44.284L252.265 45.428V46.156C252.265 51.2 253.929 52.5 258.973 52.5H275.561C280.605 52.5 282.269 51.2 282.269 46.156V42.464C282.269 37.42 280.605 36.12 275.561 36.12H258.817V30.348H276.393ZM337.821 30.452V35.548L344.061 34.56V32.012C344.061 26.968 342.449 25.668 337.405 25.668H321.389C316.345 25.668 314.733 26.968 314.733 32.012V46.156C314.733 51.2 316.345 52.5 321.389 52.5H337.405C342.449 52.5 344.061 51.2 344.061 46.156V42.984L337.821 41.684V47.456H320.973V30.452H337.821ZM362.614 47.456V30.452H383.206V47.456H362.614ZM356.374 32.012V46.156C356.374 51.2 357.986 52.5 363.03 52.5H382.79C387.834 52.5 389.446 51.2 389.446 46.156V32.012C389.446 26.968 387.834 25.668 382.79 25.668H363.03C357.986 25.668 356.374 26.968 356.374 32.012ZM402.598 52.5H408.734V42.36H414.662L425.478 52.5H434.422L422.046 42.36H425.582C429.69 42.36 431.614 40.904 431.614 37.16V30.868C431.614 27.124 429.69 25.668 425.582 25.668H402.598V52.5ZM422.774 30.296C424.698 30.296 425.582 30.66 425.582 32.428V35.652C425.582 37.42 424.698 37.784 422.774 37.784H408.734V30.296H422.774ZM444.29 52.5H450.426V42.048H467.274C471.382 42.048 473.306 40.592 473.306 36.848V30.868C473.306 27.124 471.382 25.668 467.274 25.668H444.29V52.5ZM464.466 30.296C466.39 30.296 467.274 30.66 467.274 32.428V35.288C467.274 37.056 466.39 37.42 464.466 37.42H450.426V30.296H464.466ZM488.602 47.456V30.452H509.194V47.456H488.602ZM482.362 32.012V46.156C482.362 51.2 483.974 52.5 489.018 52.5H508.778C513.822 52.5 515.434 51.2 515.434 46.156V32.012C515.434 26.968 513.822 25.668 508.778 25.668H489.018C483.974 25.668 482.362 26.968 482.362 32.012ZM528.587 52.5H534.723V42.36H540.651L551.467 52.5H560.411L548.035 42.36H551.571C555.679 42.36 557.603 40.904 557.603 37.16V30.868C557.603 27.124 555.679 25.668 551.571 25.668H528.587V52.5ZM548.763 30.296C550.687 30.296 551.571 30.66 551.571 32.428V35.652C551.571 37.42 550.687 37.784 548.763 37.784H534.723V30.296H548.763ZM563.2 52.5H569.44L572.56 46.624H589.564L592.788 52.5H599.808L584.416 25.668H578.384L563.2 52.5ZM575.212 41.788L581.192 30.868L586.964 41.788H575.212ZM617.289 30.452H629.665V25.668H598.725V30.452H611.049V52.5H617.289V30.452ZM637.309 52.5H643.549V25.668H637.309V52.5ZM662.934 47.456V30.452H683.526V47.456H662.934ZM656.694 32.012V46.156C656.694 51.2 658.306 52.5 663.35 52.5H683.11C688.154 52.5 689.766 51.2 689.766 46.156V32.012C689.766 26.968 688.154 25.668 683.11 25.668H663.35C658.306 25.668 656.694 26.968 656.694 32.012ZM702.867 52.5H708.483V37.992C708.483 37.212 708.431 35.808 708.223 33.728C708.951 34.56 709.679 35.236 710.459 35.912L730.167 52.5H734.431V25.668H728.815V39.76C728.815 40.592 728.919 42.152 729.075 44.388C728.139 43.296 727.099 42.36 726.007 41.476L707.131 25.668H702.867V52.5Z" fill="white"/>
<line x1="765" y1="65" x2="765" y2="10" stroke="white" stroke-width="2"/>
<path d="M808.528 33.368V35.256L811.92 34.456V34.104C811.92 31.256 810.768 30.488 807.824 30.488H798.448C795.344 30.488 794.352 31.288 794.352 34.392V36.216C794.352 39.32 795.344 40.12 798.448 40.12H808.752V43.896H797.072V41.944L793.68 42.648V43.096C793.68 46.2 794.704 47 797.808 47H808.016C811.12 47 812.144 46.2 812.144 43.096V40.824C812.144 37.72 811.12 36.92 808.016 36.92H797.712V33.368H808.528ZM820.099 47H823.875V40.568H834.243C836.771 40.568 837.955 39.672 837.955 37.368V33.688C837.955 31.384 836.771 30.488 834.243 30.488H820.099V47ZM832.515 33.336C833.699 33.336 834.243 33.56 834.243 34.648V36.408C834.243 37.496 833.699 37.72 832.515 37.72H823.875V33.336H832.515ZM838.931 47H842.771L844.691 43.384H855.155L857.139 47H861.459L851.987 30.488H848.275L838.931 47ZM846.323 40.408L850.003 33.688L853.555 40.408H846.323ZM880.049 33.432V36.568L883.889 35.96V34.392C883.889 31.288 882.897 30.488 879.793 30.488H869.937C866.833 30.488 865.841 31.288 865.841 34.392V43.096C865.841 46.2 866.833 47 869.937 47H879.793C882.897 47 883.889 46.2 883.889 43.096V41.144L880.049 40.344V43.896H869.681V33.432H880.049ZM891.818 47H908.874V43.896H895.658V39.8H903.274V36.984H895.658V33.304H908.714V30.488H891.818V47Z" fill="#DDDDDD"/>
</svg>
